<?xml version="1.0" encoding="UTF-8" ?>
<!DOCTYPE svg PUBLIC "-//W3C//DTD SVG 1.1//EN" "http://www.w3.org/Graphics/SVG/1.1/DTD/svg11.dtd">
<svg width="518pt" height="218pt" viewBox="0 0 518 218" version="1.1" xmlns="http://www.w3.org/2000/svg">
<g id="#000000ff">
<path fill="#000000" opacity="1.00" d=" M 249.02 17.00 C 252.07 17.11 254.97 15.81 258.03 15.97 C 264.03 16.02 270.02 15.97 276.02 16.01 C 280.22 16.00 284.32 17.21 288.54 17.10 C 289.50 17.69 290.47 18.28 291.45 18.86 C 294.51 18.95 297.50 19.65 300.50 20.19 C 301.48 20.78 302.46 21.37 303.45 21.95 C 303.93 22.02 304.89 22.16 305.37 22.23 C 306.69 22.78 308.11 22.98 309.52 23.20 C 314.08 25.32 318.32 27.89 322.46 30.71 C 326.41 32.76 328.28 37.07 330.96 40.42 C 331.00 40.91 331.08 41.90 331.12 42.39 C 332.25 44.00 333.11 45.76 333.93 47.53 C 334.00 49.91 333.69 52.41 334.75 54.63 C 334.91 55.54 335.07 56.46 335.25 57.38 C 336.30 59.42 335.97 61.77 336.04 63.98 C 335.88 68.20 336.72 72.77 334.28 76.53 C 333.99 77.91 333.73 79.30 333.23 80.63 C 333.16 81.12 333.02 82.11 332.94 82.61 C 331.96 83.54 330.98 84.48 330.00 85.42 C 330.00 85.95 329.99 87.02 329.99 87.55 C 329.07 88.47 328.16 89.39 327.26 90.34 C 324.74 97.77 317.42 101.86 313.09 108.08 C 307.01 112.42 302.60 118.66 296.09 122.49 C 296.04 122.74 295.96 123.26 295.91 123.51 C 292.22 125.91 288.94 128.89 285.58 131.73 C 283.73 131.94 282.24 133.01 281.47 134.71 C 280.14 135.25 278.80 135.77 277.45 136.26 C 275.05 138.40 272.41 140.24 269.59 141.76 C 267.54 141.72 266.14 143.07 265.55 144.94 C 265.03 144.98 263.98 145.06 263.46 145.10 C 262.51 146.01 261.56 146.92 260.62 147.82 C 257.92 148.37 254.62 148.69 253.62 151.74 C 252.61 152.50 251.57 153.25 250.56 154.01 C 252.17 154.00 253.79 153.97 255.41 153.90 C 258.18 152.07 261.62 152.34 264.62 151.19 C 265.91 151.07 267.21 150.98 268.51 150.89 C 269.48 150.33 270.45 149.78 271.43 149.22 C 273.17 148.78 274.91 148.29 276.65 147.81 C 277.57 146.88 278.50 145.96 279.43 145.03 C 279.96 144.99 281.03 144.92 281.56 144.88 C 282.49 143.99 283.42 143.11 284.37 142.25 C 285.61 141.89 286.81 141.45 288.00 140.95 C 288.43 142.10 288.86 143.26 289.27 144.43 C 287.22 146.38 285.22 148.43 282.70 149.79 C 283.25 150.51 283.81 151.21 284.41 151.89 C 287.93 152.19 291.48 151.93 295.02 152.03 C 299.54 152.30 303.87 150.62 308.40 150.85 C 309.66 149.86 311.01 148.97 312.49 148.31 C 316.35 145.67 319.63 142.17 322.44 138.45 C 326.56 135.49 329.80 131.51 333.44 128.00 C 335.17 128.00 336.91 128.00 338.65 128.00 C 338.96 128.64 339.60 129.93 339.92 130.57 C 339.93 131.51 339.95 132.46 339.96 133.41 C 337.91 135.18 337.53 138.32 335.06 139.62 C 335.04 140.31 334.99 141.69 334.97 142.39 C 335.30 142.04 335.97 141.36 336.30 141.02 C 337.28 141.50 338.26 141.97 339.25 142.44 C 338.90 143.51 338.55 144.57 338.18 145.63 C 338.14 146.17 338.06 147.25 338.03 147.79 C 336.99 148.39 335.95 148.98 334.90 149.57 C 335.00 151.17 334.76 153.02 336.41 153.96 C 339.17 154.37 341.83 153.37 344.46 152.70 C 346.16 152.19 347.89 151.78 349.59 151.24 C 350.07 151.14 351.03 150.95 351.51 150.86 C 353.17 149.94 354.85 149.04 356.51 148.10 C 357.48 148.04 358.46 147.97 359.45 147.91 C 360.73 146.95 362.07 146.06 363.43 145.21 C 365.74 144.95 367.79 143.84 369.48 142.28 C 370.51 141.90 371.53 141.52 372.56 141.12 C 373.69 141.06 374.83 141.01 375.98 140.96 C 375.98 140.51 375.99 139.61 376.00 139.16 C 377.51 138.85 380.79 136.88 381.01 139.57 C 378.93 141.11 376.38 142.32 375.54 144.98 C 374.49 144.98 373.45 144.99 372.41 145.00 C 371.47 146.00 370.53 146.99 369.59 147.99 C 369.06 148.01 367.99 148.03 367.46 148.05 C 365.48 149.34 363.52 150.65 361.54 151.95 C 361.01 151.97 359.96 152.00 359.43 152.02 C 358.50 152.96 357.58 153.89 356.65 154.82 C 355.22 155.05 353.80 155.31 352.42 155.72 C 351.95 155.84 351.02 156.07 350.56 156.19 C 349.22 156.76 347.86 157.28 346.51 157.80 C 341.66 159.54 336.46 158.93 331.42 159.00 C 330.14 157.66 328.85 156.33 327.58 154.99 C 326.53 155.00 325.49 155.02 324.46 155.04 C 323.48 155.68 322.51 156.33 321.53 156.97 C 319.18 157.00 316.82 157.00 314.47 156.98 C 313.49 156.33 312.52 155.68 311.54 155.04 C 306.11 154.78 300.49 155.08 295.35 156.93 C 293.65 156.96 291.83 157.19 290.36 156.13 C 285.72 155.64 280.80 156.87 276.42 154.84 C 275.04 152.57 272.85 152.73 271.47 154.91 C 270.50 154.98 269.53 155.06 268.57 155.14 C 266.51 155.97 264.45 156.81 262.46 157.80 C 262.00 157.92 261.08 158.16 260.62 158.27 C 258.85 159.13 256.87 159.03 254.97 159.04 C 248.79 158.96 242.62 159.01 236.44 159.00 C 235.50 160.00 234.55 161.00 233.61 161.99 C 233.10 162.01 232.07 162.04 231.55 162.06 C 229.86 163.82 227.75 165.05 225.49 165.95 C 224.97 165.97 223.94 166.00 223.42 166.02 C 222.98 166.46 222.09 167.33 221.65 167.76 C 220.56 168.09 219.47 168.43 218.38 168.79 C 217.89 168.86 216.90 168.99 216.41 169.06 C 215.48 170.00 214.56 170.94 213.63 171.88 C 210.88 171.67 208.42 172.89 206.49 174.77 C 204.75 175.04 203.06 175.50 201.43 176.17 C 200.19 178.33 197.56 178.67 195.48 179.60 C 194.44 180.36 193.43 181.15 192.44 181.96 C 191.42 181.95 190.41 181.95 189.39 181.95 C 188.05 182.89 186.72 183.87 185.45 184.90 C 184.96 184.95 183.99 185.06 183.51 185.11 C 181.42 186.20 179.34 187.33 177.47 188.77 C 176.12 189.02 174.78 189.26 173.44 189.56 C 171.77 190.27 170.12 191.00 168.48 191.79 C 166.02 192.19 163.59 192.75 161.14 193.24 C 160.71 192.29 160.31 191.32 159.95 190.34 C 161.30 189.25 162.98 188.76 164.56 188.12 C 165.08 188.08 166.11 188.01 166.62 187.97 C 167.06 187.49 167.94 186.53 168.37 186.05 C 168.87 185.98 169.87 185.85 170.37 185.78 C 171.69 185.24 173.09 185.00 174.48 184.77 C 175.78 183.84 177.10 182.93 178.42 182.03 C 179.45 182.00 180.49 181.97 181.53 181.94 C 183.66 180.46 185.86 178.88 188.57 178.80 C 190.64 177.73 192.54 176.39 194.44 175.04 C 194.97 175.03 196.01 174.99 196.54 174.98 C 198.19 174.00 199.85 173.02 201.50 172.03 C 202.02 172.02 203.07 172.00 203.59 171.99 C 205.68 170.52 207.81 168.92 210.46 168.74 C 211.92 168.21 213.62 167.87 214.40 166.37 C 214.93 166.05 216.00 165.41 216.53 165.10 C 217.01 165.05 217.96 164.95 218.44 164.90 C 221.81 162.11 226.07 160.77 229.51 158.08 C 229.99 158.03 230.95 157.94 231.43 157.89 C 233.47 156.12 235.91 154.93 238.29 153.69 C 237.86 153.28 237.01 152.44 236.58 152.02 C 234.43 151.98 232.27 151.80 230.13 151.99 C 228.58 152.77 227.20 153.83 225.63 154.57 C 223.57 155.14 221.29 154.80 219.36 155.85 C 217.37 155.98 215.38 156.01 213.40 156.02 C 212.96 156.47 212.10 157.38 211.66 157.83 C 208.65 158.46 205.63 159.06 202.56 159.19 C 200.44 160.48 198.04 161.05 195.60 161.30 C 193.40 162.33 190.92 161.98 188.57 161.97 C 187.30 160.93 185.97 159.96 184.60 159.05 C 183.61 158.98 182.61 158.91 181.62 158.83 C 180.05 157.68 178.03 157.80 176.38 158.71 C 175.94 158.86 175.05 159.15 174.61 159.29 C 171.25 160.63 167.56 159.84 164.05 160.03 C 161.49 159.88 158.70 160.51 156.37 159.17 C 154.75 159.04 153.13 158.96 151.52 158.90 C 150.00 158.25 148.21 157.92 147.10 156.60 C 146.85 153.92 147.02 151.23 146.93 148.55 C 145.02 149.66 143.30 151.05 141.49 152.32 C 139.49 153.42 137.56 154.64 135.54 155.70 C 134.51 156.35 133.50 157.03 132.51 157.72 C 131.49 158.09 130.47 158.46 129.46 158.83 C 128.96 158.90 127.96 159.03 127.47 159.10 C 126.49 159.70 125.52 160.30 124.55 160.91 C 123.20 161.13 121.85 161.35 120.50 161.56 C 118.12 161.04 115.77 160.38 113.39 159.83 C 111.68 159.01 110.13 157.90 109.53 156.01 C 105.59 155.69 101.38 155.79 98.45 158.83 C 95.92 158.97 93.44 159.47 91.02 160.17 C 91.01 160.54 90.98 161.28 90.97 161.65 C 90.34 161.97 89.07 162.61 88.43 162.93 C 84.78 163.08 80.98 163.38 77.60 161.73 C 76.54 160.19 75.31 158.79 74.01 157.47 C 73.99 155.13 74.05 152.80 74.14 150.47 C 76.63 146.72 79.66 143.33 83.50 140.92 C 85.88 140.50 87.85 141.54 88.39 143.97 C 88.79 144.33 89.60 145.05 90.00 145.41 C 90.00 145.94 89.98 147.02 89.97 147.56 C 88.52 147.95 87.93 149.10 87.73 150.48 C 87.14 151.70 86.53 152.91 85.92 154.12 C 86.55 154.05 87.80 153.91 88.43 153.85 C 89.41 153.42 90.40 153.00 91.39 152.59 C 94.15 150.74 97.58 150.85 100.66 149.90 C 101.09 149.44 101.96 148.50 102.39 148.03 C 104.05 147.99 105.72 147.94 107.39 147.87 C 108.46 147.45 109.54 147.05 110.63 146.68 C 111.09 146.24 112.02 145.38 112.48 144.94 C 114.39 145.12 116.81 144.38 117.97 146.41 C 118.29 148.87 117.35 151.25 116.83 153.61 C 117.51 153.99 118.88 154.74 119.57 155.12 C 120.94 154.96 122.33 154.80 123.62 154.27 C 124.08 154.17 125.00 153.96 125.47 153.85 C 126.00 153.57 127.07 153.01 127.61 152.73 C 128.57 152.19 129.54 151.65 130.50 151.12 C 130.98 151.06 131.96 150.95 132.44 150.89 C 134.20 149.32 136.28 148.20 138.42 147.25 C 142.74 146.04 145.43 142.13 149.55 140.69 C 152.15 138.61 154.75 136.51 157.56 134.72 C 160.41 133.32 162.58 130.83 165.59 129.69 C 167.17 125.97 171.66 125.15 173.85 121.90 C 176.80 118.13 179.82 114.43 183.30 111.12 C 185.51 109.24 182.53 105.31 180.36 107.89 C 175.82 108.65 171.48 106.56 166.94 106.97 C 163.93 106.82 160.31 106.92 159.03 110.24 C 158.21 109.34 157.40 108.44 156.60 107.53 C 160.24 106.13 164.04 104.76 168.01 105.02 C 170.24 104.99 172.67 105.48 174.65 104.12 C 179.24 103.55 184.38 105.28 188.42 102.31 C 188.94 102.04 189.99 101.51 190.52 101.25 C 191.53 100.95 192.54 100.64 193.55 100.32 C 194.59 99.99 195.64 99.65 196.69 99.32 C 197.63 99.85 198.57 100.40 199.51 100.94 C 206.15 101.10 212.79 100.89 219.43 101.07 C 220.07 101.39 221.36 102.03 222.00 102.35 C 222.00 103.03 222.01 104.37 222.01 105.04 C 215.49 105.41 208.74 104.11 202.38 105.70 C 201.94 105.85 201.06 106.16 200.61 106.31 C 199.27 106.73 197.89 107.00 196.51 107.27 C 195.01 107.98 193.52 108.67 192.01 109.35 C 192.01 109.91 192.00 111.02 192.00 111.58 C 187.97 114.73 185.48 119.38 181.29 122.31 C 179.11 124.15 178.07 127.08 175.44 128.45 C 173.67 130.70 171.80 132.89 170.60 135.51 C 169.64 136.33 168.90 137.35 168.27 138.44 C 166.72 141.65 163.24 143.36 161.72 146.59 C 161.17 147.75 160.41 148.81 159.38 149.60 C 158.92 150.66 158.46 151.73 158.01 152.80 C 159.16 153.51 160.33 154.22 161.48 154.95 C 165.49 155.03 169.51 155.02 173.53 154.96 C 174.50 154.34 175.47 153.72 176.45 153.10 C 176.94 153.03 177.92 152.88 178.41 152.80 C 179.43 152.41 180.46 152.05 181.51 151.71 C 186.23 150.33 188.84 145.98 192.49 143.04 C 193.02 143.01 194.08 142.95 194.61 142.92 C 196.79 144.04 197.88 146.20 198.64 148.42 C 199.75 147.60 200.68 146.58 201.46 145.44 C 206.17 142.07 209.80 137.41 214.41 133.95 C 215.51 133.97 216.62 133.99 217.73 134.00 C 218.04 134.88 218.35 135.76 218.67 136.65 C 215.00 141.44 210.81 145.77 207.09 150.52 C 207.02 151.16 206.89 152.45 206.82 153.09 C 209.13 151.78 211.83 152.05 214.38 151.81 C 216.56 150.61 219.12 151.05 221.50 150.92 C 223.20 149.95 224.91 148.98 226.60 147.97 C 227.54 148.17 228.48 148.38 229.43 148.59 C 232.12 148.05 234.86 147.73 237.47 146.82 C 239.09 145.21 241.28 144.86 243.47 144.79 C 246.01 143.34 251.23 141.09 252.45 145.06 C 253.80 144.97 255.19 145.09 256.52 144.72 C 258.23 142.89 260.03 141.07 262.51 140.33 C 263.55 139.62 264.55 138.86 265.56 138.10 C 266.04 138.05 267.00 137.96 267.49 137.92 C 270.69 135.35 273.62 132.11 277.55 130.68 C 281.57 127.66 285.34 124.31 289.48 121.44 C 290.69 120.66 291.66 119.60 292.45 118.42 C 294.91 116.60 297.50 114.88 299.46 112.49 C 301.77 110.12 304.60 108.23 306.45 105.42 C 308.09 104.43 309.48 103.12 310.44 101.45 C 311.67 100.69 312.69 99.69 313.45 98.45 C 315.02 97.61 316.27 96.34 316.27 94.45 C 318.71 93.11 319.91 90.46 321.80 88.54 C 322.26 87.02 322.75 85.52 323.22 84.01 C 323.58 84.00 324.29 83.99 324.65 83.99 C 324.96 83.35 325.59 82.08 325.90 81.44 C 325.95 80.11 326.01 78.78 326.06 77.45 C 326.69 76.48 327.33 75.51 327.96 74.53 C 327.97 68.90 328.15 63.27 327.86 57.64 C 327.27 56.34 326.93 54.95 326.58 53.56 C 326.16 51.50 325.79 49.43 325.26 47.39 C 325.15 46.93 324.95 46.01 324.84 45.55 C 324.10 44.54 323.38 43.52 322.71 42.47 C 320.77 38.53 317.39 35.02 313.12 33.69 C 312.63 32.80 312.14 31.91 311.67 31.01 C 310.25 31.00 308.83 30.99 307.42 30.99 C 306.08 30.07 304.75 29.12 303.46 28.14 C 303.00 28.03 302.08 27.83 301.62 27.73 C 299.58 27.07 297.42 26.93 295.39 26.25 C 294.45 26.09 293.52 25.93 292.60 25.78 C 291.26 25.38 289.92 25.01 288.59 24.62 C 282.93 23.19 276.77 24.97 271.32 22.22 C 269.96 22.90 268.65 23.91 267.06 23.93 C 258.59 24.21 250.11 23.76 241.64 24.13 C 238.53 25.87 234.79 24.44 231.46 25.31 C 227.14 26.39 222.61 26.48 218.36 27.78 C 216.37 27.97 214.31 27.95 212.41 28.67 C 209.40 29.35 206.36 29.89 203.40 30.78 C 199.49 30.67 195.92 32.23 192.45 33.83 C 188.85 33.70 185.38 34.77 182.44 36.84 C 181.98 36.95 181.07 37.16 180.61 37.27 C 178.67 38.25 176.46 37.98 174.37 38.04 C 173.93 38.52 173.06 39.48 172.62 39.95 C 172.12 40.01 171.10 40.13 170.59 40.19 C 168.55 40.88 166.48 41.46 164.44 42.15 C 163.47 42.72 162.51 43.30 161.54 43.86 C 158.89 43.89 156.42 44.96 154.51 46.78 C 152.52 47.32 150.52 47.81 148.50 48.20 C 147.21 49.16 145.90 50.08 144.57 50.98 C 143.52 50.99 142.46 50.99 141.41 51.01 C 140.98 51.45 140.10 52.34 139.66 52.79 C 135.85 53.42 132.80 55.78 129.62 57.76 C 125.80 59.50 122.50 62.19 118.54 63.70 C 113.01 66.48 107.96 70.52 104.20 75.43 C 103.74 77.21 103.05 78.93 102.20 80.55 C 102.10 81.02 101.91 81.96 101.81 82.43 C 101.39 83.43 100.99 84.43 100.59 85.43 C 100.00 88.21 99.74 91.13 98.16 93.57 C 98.11 94.08 98.00 95.08 97.94 95.59 C 96.36 98.39 93.98 100.57 91.52 102.59 C 89.47 105.20 88.48 108.80 85.36 110.43 C 84.83 111.26 84.30 112.08 83.78 112.91 C 86.38 114.57 89.53 113.94 92.44 113.96 C 93.71 112.91 95.05 111.93 96.42 111.01 C 98.73 111.03 101.05 111.00 103.37 110.86 C 105.65 109.43 108.44 110.18 110.97 110.01 C 115.14 110.31 118.87 107.83 123.02 107.99 C 126.80 107.95 130.58 107.95 134.36 108.13 C 136.03 109.64 138.05 108.39 139.92 108.18 C 142.74 107.78 145.60 108.00 148.43 108.09 C 147.99 109.15 147.39 110.09 146.60 110.91 C 142.90 111.19 139.17 110.92 135.46 111.01 C 135.02 112.10 134.40 113.06 133.61 113.90 C 130.87 114.21 127.94 113.54 125.38 114.86 C 119.39 114.96 113.41 114.87 107.54 116.23 C 101.78 119.57 94.82 117.35 88.53 118.03 C 87.03 119.52 85.38 120.84 83.61 121.97 C 83.07 122.01 82.00 122.07 81.46 122.10 C 77.54 125.45 74.02 129.24 71.17 133.55 C 71.10 134.04 70.97 135.01 70.91 135.50 C 69.74 137.11 68.62 138.76 67.74 140.55 C 67.11 142.24 65.98 143.64 64.34 144.44 C 60.49 151.47 54.83 157.48 48.49 162.30 C 46.60 163.08 45.01 164.36 43.56 165.77 C 42.56 166.08 41.55 166.40 40.54 166.72 C 38.95 165.87 37.12 166.01 35.39 165.92 C 32.39 164.31 30.38 161.45 27.50 159.69 C 25.80 158.99 24.33 157.89 22.96 156.69 C 23.14 152.92 22.53 149.06 23.56 145.38 C 23.98 144.40 24.41 143.42 24.83 142.44 C 24.91 141.97 25.06 141.03 25.13 140.57 C 27.37 136.11 30.28 132.03 32.26 127.43 C 34.71 121.83 38.61 117.11 42.57 112.53 C 45.55 110.23 47.42 106.84 50.35 104.48 C 53.93 101.66 56.33 97.59 60.19 95.11 C 61.85 94.09 62.48 92.17 63.38 90.56 C 65.79 89.82 67.96 88.42 69.47 86.38 C 74.08 84.36 77.13 80.08 81.55 77.72 C 85.02 76.21 87.28 73.05 90.02 70.59 C 90.00 69.86 89.97 68.41 89.95 67.68 C 88.79 68.20 87.65 68.75 86.51 69.30 C 85.14 71.61 82.25 72.07 80.42 73.91 C 79.92 73.94 78.92 73.99 78.41 74.02 C 77.13 75.35 75.85 76.67 74.58 78.00 C 72.19 78.01 69.79 78.14 67.41 77.90 C 66.18 77.16 65.99 75.76 65.79 74.47 C 67.14 72.29 68.86 70.29 71.43 69.59 C 72.39 68.08 73.76 66.93 75.42 66.24 C 77.09 65.28 78.70 64.22 80.38 63.26 C 82.58 62.34 84.56 61.00 86.56 59.72 C 90.64 58.00 93.35 54.01 97.60 52.75 C 98.94 51.99 100.24 51.16 101.52 50.30 C 104.00 49.88 106.36 48.80 107.43 46.38 C 109.99 43.88 113.36 42.43 115.78 39.78 C 118.96 36.49 122.25 33.31 125.43 30.03 C 125.94 29.99 126.97 29.93 127.48 29.90 C 128.45 29.36 129.43 28.83 130.40 28.30 C 131.19 27.83 131.97 27.36 132.75 26.89 C 133.50 28.09 134.24 29.30 134.98 30.50 C 135.00 31.02 135.03 32.06 135.05 32.58 C 133.44 35.08 131.27 37.14 129.56 39.56 C 125.90 41.85 123.55 45.63 119.98 48.02 C 116.80 50.16 114.68 53.55 111.31 55.44 C 110.91 56.70 110.43 57.95 109.91 59.17 C 110.59 59.12 111.95 59.02 112.63 58.97 C 113.07 58.48 113.95 57.50 114.38 57.01 C 114.90 56.99 115.92 56.96 116.44 56.94 C 118.26 55.45 120.30 54.27 122.43 53.27 C 124.29 52.49 126.04 51.47 127.54 50.11 C 128.03 50.05 129.00 49.93 129.48 49.88 C 131.13 48.96 132.80 48.07 134.47 47.21 C 136.65 46.80 138.81 46.27 140.98 45.80 C 140.99 45.43 141.01 44.70 141.02 44.34 C 141.65 44.04 142.93 43.44 143.56 43.14 C 144.05 43.08 145.04 42.96 145.53 42.90 C 147.66 41.48 149.83 40.01 152.42 39.64 C 153.49 39.35 154.57 39.07 155.65 38.80 C 156.09 38.37 156.97 37.50 157.40 37.07 C 157.90 36.99 158.88 36.84 159.37 36.76 C 160.71 36.20 162.15 36.01 163.57 35.79 C 164.54 35.25 165.50 34.69 166.47 34.14 C 166.95 34.04 167.92 33.85 168.40 33.76 C 170.78 33.00 173.23 32.48 175.65 31.88 C 176.08 31.45 176.93 30.59 177.36 30.16 C 178.79 29.97 180.23 29.79 181.61 29.36 C 183.73 29.02 185.83 28.46 187.58 27.16 C 188.51 27.04 189.44 26.91 190.38 26.79 C 192.27 25.73 194.48 26.03 196.55 25.90 C 197.51 25.31 198.48 24.72 199.45 24.12 C 199.93 24.03 200.90 23.84 201.38 23.75 C 206.25 21.92 212.48 23.73 216.61 20.05 C 219.93 20.01 223.31 20.25 226.54 19.34 C 230.18 18.45 234.10 19.75 237.62 18.21 C 238.87 18.07 240.12 17.94 241.38 17.79 C 243.72 16.49 246.47 17.16 249.02 17.00 M 72.62 94.47 C 70.10 98.03 65.64 99.68 63.60 103.56 C 58.20 107.26 54.19 112.54 50.06 117.53 C 50.03 118.03 49.99 119.03 49.96 119.53 C 45.26 123.51 43.06 129.35 40.12 134.57 C 40.07 135.06 39.97 136.05 39.92 136.54 C 38.67 138.51 37.39 140.45 36.16 142.43 C 36.23 145.00 35.62 147.49 34.10 149.59 C 34.10 150.03 34.10 150.92 34.11 151.36 C 35.27 153.17 36.02 155.23 37.36 156.92 C 38.71 157.05 40.07 157.00 41.42 157.00 C 43.42 155.08 45.87 153.76 48.14 152.21 C 50.68 150.43 52.22 147.65 54.44 145.53 C 56.72 143.73 57.13 140.65 58.75 138.36 C 58.84 137.89 59.03 136.96 59.12 136.49 C 61.64 133.16 64.97 130.43 66.82 126.62 C 63.98 121.85 69.91 118.47 71.53 114.50 C 72.65 111.18 74.81 108.44 76.83 105.64 C 78.08 103.34 79.01 100.88 79.16 98.24 C 79.60 97.82 80.48 96.99 80.91 96.57 C 80.95 95.54 80.99 94.50 81.02 93.46 C 81.65 92.48 82.29 91.49 82.93 90.52 C 83.06 88.91 83.19 87.30 83.32 85.70 C 79.57 88.37 75.62 90.95 72.62 94.47 M 327.27 146.09 C 327.42 149.38 330.30 144.57 327.27 146.09 M 191.56 155.06 C 192.91 155.07 194.25 155.01 195.59 154.89 C 197.55 153.85 196.90 151.53 197.14 149.73 C 195.15 151.34 192.35 152.38 191.56 155.06 Z" />
<path fill="#000000" opacity="1.00" d=" M 445.74 75.75 C 449.25 72.80 452.72 69.78 456.21 66.79 C 456.91 67.19 458.30 68.00 459.00 68.41 C 458.99 70.11 458.98 71.81 458.98 73.51 C 456.48 74.94 454.47 77.05 452.09 78.64 C 452.05 79.12 451.98 80.07 451.94 80.55 C 447.73 82.29 446.67 87.57 442.43 89.43 C 439.40 93.22 436.90 97.38 434.28 101.45 C 430.65 106.71 426.93 111.91 422.76 116.76 C 420.09 119.69 416.75 122.06 414.69 125.52 C 413.23 129.56 408.83 131.46 407.24 135.43 C 405.91 137.53 404.59 139.64 403.63 141.94 C 403.34 141.98 402.77 142.04 402.48 142.07 C 401.24 144.07 399.76 145.90 398.54 147.91 C 399.88 147.95 401.23 147.99 402.58 148.02 C 403.51 147.02 404.46 146.02 405.40 145.01 C 405.92 144.99 406.94 144.94 407.46 144.92 C 408.00 144.61 409.07 143.99 409.61 143.68 C 410.28 141.96 411.64 140.76 413.54 140.75 C 416.72 138.17 419.82 135.39 423.57 133.67 C 425.01 130.97 428.08 129.94 430.47 128.27 C 432.29 127.99 433.83 127.07 434.41 125.24 C 435.45 124.75 436.50 124.25 437.56 123.76 C 438.60 121.41 441.02 120.36 442.99 118.94 C 443.04 118.36 443.15 117.22 443.20 116.64 C 443.75 115.31 443.98 113.89 444.21 112.48 C 447.64 108.26 450.82 103.62 455.52 100.69 C 459.07 99.31 461.09 95.79 464.42 94.01 C 464.93 94.00 465.97 93.97 466.49 93.96 C 468.45 91.77 470.99 90.30 473.57 88.94 C 476.43 88.25 477.98 90.46 479.16 92.68 C 474.35 95.77 470.37 100.22 465.00 102.34 C 465.01 102.91 465.02 104.05 465.02 104.62 C 462.75 107.18 459.48 108.70 457.55 111.57 C 455.76 112.96 453.98 114.37 452.00 115.47 C 451.95 117.20 451.95 118.93 451.98 120.66 C 456.11 121.51 458.69 124.97 460.14 128.69 C 459.36 130.67 458.46 132.59 457.68 134.56 C 456.01 135.33 454.86 136.75 454.31 138.49 C 451.85 142.35 448.12 145.14 445.01 148.44 C 445.00 148.96 444.98 150.00 444.97 150.52 C 443.98 151.83 441.90 152.71 441.96 154.56 C 443.03 155.46 444.23 156.19 445.42 156.94 C 446.74 157.00 448.07 157.08 449.42 157.18 C 450.73 157.61 452.07 157.98 453.42 158.34 C 454.45 158.65 455.49 158.94 456.54 159.22 C 456.99 158.67 457.90 157.56 458.35 157.01 C 459.72 156.98 461.10 156.96 462.48 156.93 C 464.15 155.97 465.84 155.04 467.52 154.08 C 468.05 154.06 469.12 154.02 469.65 153.99 C 470.11 153.43 471.01 152.32 471.46 151.76 C 473.51 151.73 474.87 153.12 475.46 154.99 C 482.51 154.59 489.81 156.05 496.66 153.88 C 497.09 153.42 497.96 152.48 498.39 152.02 C 498.95 151.99 500.05 151.94 500.61 151.92 C 503.26 149.72 504.87 146.55 507.57 144.41 C 508.18 141.33 511.85 140.66 512.57 137.67 C 514.24 138.30 515.23 139.69 515.18 141.49 C 513.56 143.57 511.88 145.62 510.54 147.89 C 510.06 147.98 509.10 148.14 508.61 148.23 C 507.49 148.59 506.37 148.94 505.25 149.27 C 504.07 152.90 502.17 156.24 499.66 159.12 C 498.65 159.02 497.63 158.91 496.63 158.80 C 488.38 156.25 479.88 159.88 471.47 159.02 C 468.28 160.97 465.37 163.31 462.29 165.41 C 461.46 167.51 460.44 169.68 458.14 170.45 C 457.99 172.16 457.97 173.90 457.38 175.53 C 455.70 178.32 456.23 181.45 457.16 184.39 C 454.12 184.02 455.34 180.55 454.61 178.47 C 453.70 175.74 454.00 172.90 455.09 170.27 C 456.06 169.46 457.02 168.65 457.99 167.84 C 458.00 167.14 458.00 165.73 458.01 165.03 C 458.86 165.00 460.57 164.94 461.42 164.91 C 460.52 161.81 457.02 160.25 454.02 161.19 C 449.89 162.26 445.62 162.03 441.41 162.00 C 439.43 160.71 437.62 159.20 435.88 157.61 C 436.00 155.85 435.94 154.02 436.73 152.39 C 436.84 151.93 437.07 151.02 437.18 150.56 C 437.47 149.93 438.04 148.66 438.33 148.02 C 438.63 148.00 439.23 147.96 439.53 147.95 C 440.10 146.76 440.81 145.62 441.91 144.84 C 444.85 142.42 446.83 139.08 449.68 136.56 C 450.64 134.23 452.09 132.17 453.98 130.49 C 453.99 129.14 453.99 127.79 454.00 126.44 C 452.49 124.99 451.01 123.50 449.55 121.99 C 448.51 122.01 447.48 122.03 446.46 122.05 C 440.91 124.77 437.42 130.40 431.40 132.26 C 430.26 134.91 427.53 136.16 425.44 137.94 C 424.08 137.97 422.72 138.01 421.37 138.05 C 421.22 138.68 420.91 139.94 420.76 140.57 C 417.41 143.70 413.31 145.82 409.46 148.24 C 405.86 150.41 402.39 152.88 399.53 155.98 C 399.00 155.98 397.96 156.00 397.43 156.01 C 396.50 156.96 395.57 157.90 394.64 158.84 C 393.23 159.03 391.83 159.23 390.47 159.63 C 388.82 160.19 387.18 160.88 385.44 161.01 C 384.50 159.94 383.75 158.73 382.99 157.55 C 383.02 157.05 383.07 156.06 383.10 155.56 C 384.08 153.45 384.96 151.27 386.34 149.38 C 387.62 147.92 389.38 146.93 390.43 145.27 C 391.48 144.75 392.53 144.25 393.59 143.75 C 395.58 140.65 398.11 137.90 399.68 134.53 C 403.35 129.61 406.67 124.36 411.27 120.24 C 414.70 116.31 417.99 112.16 420.32 107.47 C 424.81 103.53 428.35 98.50 431.47 93.42 C 431.82 93.16 432.54 92.65 432.90 92.39 C 432.93 91.90 432.99 90.91 433.03 90.42 C 435.06 88.51 437.24 86.64 438.47 84.07 C 438.78 84.04 439.38 83.99 439.69 83.96 C 440.07 80.22 444.12 78.88 445.74 75.75 Z" />
<path fill="#000000" opacity="1.00" d=" M 138.46 89.90 C 139.04 89.60 140.21 88.99 140.79 88.69 C 140.97 90.56 141.02 92.51 142.10 94.14 C 138.55 94.00 134.88 94.29 131.57 92.73 C 132.83 91.80 134.12 90.92 135.43 90.04 C 136.43 89.99 137.44 89.95 138.46 89.90 Z" />
<path fill="#000000" opacity="1.00" d=" M 262.53 100.39 C 263.18 99.21 263.40 96.86 265.15 96.96 C 267.30 96.47 267.86 99.16 268.99 100.43 C 268.99 101.59 268.99 102.75 269.01 103.92 C 268.41 103.99 267.22 104.14 266.63 104.21 C 265.14 105.00 263.44 105.00 261.82 105.17 C 261.98 103.57 262.18 101.97 262.53 100.39 Z" />
<path fill="#000000" opacity="1.00" d=" M 227.07 107.88 C 227.95 108.58 228.84 109.29 229.72 110.01 C 228.45 110.87 227.16 111.70 225.83 112.47 C 225.83 110.84 226.28 109.30 227.07 107.88 Z" />
<path fill="#000000" opacity="1.00" d=" M 405.21 120.31 C 405.84 120.77 405.84 120.77 405.21 120.31 Z" />
<path fill="#000000" opacity="1.00" d=" M 391.49 127.88 C 393.17 127.94 394.83 128.27 396.30 129.16 C 394.88 130.55 393.51 132.01 392.56 133.77 C 390.67 134.06 388.23 135.92 386.91 133.65 C 387.88 131.39 390.97 130.58 391.49 127.88 Z" />
<path fill="#000000" opacity="1.00" d=" M 380.96 137.90 C 381.26 135.65 385.73 133.74 386.50 136.79 C 384.74 137.44 382.88 138.35 380.96 137.90 Z" />
<path fill="#000000" opacity="1.00" d=" M 493.51 138.67 C 494.75 138.12 496.00 137.57 497.26 137.01 C 497.01 138.42 497.01 140.07 495.60 140.88 C 494.22 141.05 492.84 141.04 491.47 141.10 C 490.56 142.78 489.25 144.13 487.59 145.07 C 486.84 145.03 485.35 144.95 484.60 144.91 C 485.05 142.39 487.22 141.62 489.54 141.84 C 490.34 140.20 491.69 139.03 493.51 138.67 Z" />
<path fill="#000000" opacity="1.00" d=" M 479.03 146.18 C 480.18 145.95 481.34 145.71 482.50 145.47 C 483.20 145.66 484.60 146.02 485.30 146.21 C 484.88 146.62 484.04 147.45 483.62 147.86 C 481.95 147.97 480.27 148.18 478.83 149.11 C 478.88 148.38 478.98 146.92 479.03 146.18 Z" />
<path fill="#000000" opacity="1.00" d=" M 144.43 197.12 C 147.36 195.46 144.74 200.41 144.43 197.12 Z" />
</g>
</svg>
