<?xml version="1.0" encoding="UTF-8"?>
<svg id="Layer_2" data-name="Layer 2" xmlns="http://www.w3.org/2000/svg" viewBox="0 0 349.65 94.39">
  <defs>
    <style>
      .cls-1 {
        font-family: HelveticaNeueW23foSKY-Bd, 'HelveticaNeueW23foSKY Bd';
        font-size: 16.4px;
      }

      .cls-1, .cls-2 {
        fill: #fff;
      }

      .cls-3 {
        fill: #961b1e;
      }

      .cls-4 {
        fill: none;
      }

      .cls-5 {
        font-size: 18.33px;
      }

      .cls-5, .cls-6, .cls-7 {
        fill: #010101;
      }

      .cls-5, .cls-7 {
        font-family: CopperplateGothic-Light, 'Copperplate Gothic Light';
        font-weight: 300;
      }

      .cls-8 {
        fill: #867878;
      }

      .cls-9 {
        fill: #857979;
      }

      .cls-7 {
        font-size: 56.13px;
      }
    </style>
  </defs>
  <g id="Layer_1-2" data-name="Layer 1">
    <g>
      <g>
        <g>
          <path class="cls-2" d="M47.55,3.23c-5.64,0-11.37-.01-17.01,0v31.42s-30.27,0-30.27,0c.04,6.5-.04,13.18.69,19.62h29.58s0,35.64,0,35.64c.01,0,0,.16.12.22,2.75,1.44,5.59,2.73,8.42,3.99,2.8-1.29,5.62-2.55,8.34-3.99.12-.06.11-.21.12-.22v-35.64s29.58,0,29.58,0c.56-4.96.62-10.05.69-15.06.02-1.49-.09-3.09,0-4.56h-30.27s0-31.42,0-31.42Z"/>
          <path class="cls-6" d="M39.09,94.39l-.1-.05c-2.72-1.2-5.62-2.51-8.44-3.99-.15-.08-.21-.21-.23-.3l-.03-.02v-35.5s-29.55,0-29.55,0l-.03-.22C.07,48.66.05,42.8.03,37.13c0-.83,0-1.66-.01-2.48v-.25s30.27,0,30.27,0V2.98s.25,0,.25,0c3.06,0,6.19,0,9.23,0,2.56,0,5.2,0,7.79,0h.25s0,31.42,0,31.42h30.28s-.02.27-.02.27c-.05.88-.03,1.81-.01,2.71.01.61.03,1.23.02,1.84v.32c-.07,4.87-.15,9.9-.69,14.76l-.03.22h-29.55s0,35.5,0,35.5l-.03.02c-.03.09-.08.22-.23.3-2.44,1.28-4.98,2.45-7.44,3.57l-1.02.47ZM30.8,89.91c2.76,1.45,5.61,2.74,8.28,3.92l.81-.37c2.45-1.12,4.98-2.28,7.4-3.55,0,0,0-.02,0-.03,0,0,0-.01,0-.02v-35.85s29.6,0,29.6,0c.52-4.77.59-9.71.66-14.49v-.32c.01-.59,0-1.22-.01-1.82-.02-.82-.03-1.67,0-2.49h-30.26s0-31.42,0-31.42c-2.5,0-5.06,0-7.53,0-2.95,0-6,0-8.97,0v31.42s-30.27,0-30.27,0c0,.74,0,1.48,0,2.23.02,5.58.04,11.35.65,16.89h29.61s0,35.85,0,35.85c0,0,0,.01,0,.02,0,0,0,.02,0,.03Z"/>
        </g>
        <g>
          <path class="cls-3" d="M77.98,34.31V3.15c-9.9.01-19.8-.01-29.7,0-.19,0-.37.08-.49.08v31.19s30.04,0,30.04,0c0,0,.19.04.16-.11Z"/>
          <path class="cls-6" d="M47.53,34.67V2.98s.25,0,.25,0c.03,0,.09-.01.14-.03.1-.02.22-.05.35-.05,4.84,0,9.75,0,14.51,0,4.98,0,10.13,0,15.19,0h.25s0,.25,0,.25v31.14c.02.14-.04.22-.07.26-.06.07-.14.1-.2.11h0s-.07,0-.07,0c0,0-.02,0-.02,0h-30.33ZM48.03,3.44v30.73s29.69,0,29.69,0V3.4c-4.99,0-10.05,0-14.94,0-4.76,0-9.67,0-14.51,0-.07,0-.16.02-.24.04,0,0,0,0,0,0Z"/>
        </g>
        <g>
          <path class="cls-3" d="M30.31,3.23c-9.96.02-19.92-.01-29.89,0-.15,2.15-.05,4.32-.07,6.48-.09,8.22-.13,16.48-.08,24.71h30.04s0-31.19,0-31.19Z"/>
          <path class="cls-6" d="M30.56,34.67H.02s0-.25,0-.25C-.02,26.61,0,18.53.1,9.7c0-.72,0-1.45,0-2.15-.01-1.42-.02-2.9.08-4.34l.02-.23h.23c4.7,0,9.48,0,14.1,0,5.17,0,10.53,0,15.79,0h.25s0,31.7,0,31.7ZM.52,34.17h29.54s0-30.69,0-30.69c-5.18,0-10.44,0-15.54,0-4.54,0-9.24,0-13.86,0-.08,1.35-.07,2.73-.06,4.07,0,.71.01,1.44,0,2.16-.1,8.72-.12,16.73-.08,24.46Z"/>
        </g>
        <g>
          <path class="cls-3" d="M47.78,89.83c8.21-4.34,16.25-9.08,22.22-16.36,4.72-5.77,6.28-11.64,7.13-18.97h-29.35s0,35.33,0,35.33Z"/>
          <path class="cls-6" d="M47.53,90.25v-36s29.88,0,29.88,0l-.03.28c-.84,7.22-2.38,13.24-7.18,19.1-6.18,7.54-14.75,12.43-22.3,16.43l-.37.2ZM48.03,54.75v34.66c7.41-3.93,15.76-8.76,21.77-16.1,4.66-5.69,6.2-11.54,7.04-18.55h-28.81Z"/>
        </g>
        <g>
          <path class="cls-3" d="M.96,54.5c.88,7.54,2.49,13.46,7.43,19.35,5.93,7.06,13.87,11.73,21.91,15.98v-35.33s-29.35,0-29.35,0Z"/>
          <path class="cls-6" d="M30.56,90.25l-.37-.2c-7.41-3.92-15.83-8.72-21.99-16.04-5.03-5.98-6.63-12.12-7.49-19.48l-.03-.28h29.88s0,36,0,36ZM1.25,54.75c.88,7.35,2.44,13.1,7.34,18.93,5.99,7.13,14.19,11.86,21.47,15.72v-34.66s-28.81,0-28.81,0Z"/>
        </g>
        <g>
          <path class="cls-8" d="M.96,54.27c0,.07,0,.16,0,.23h29.35s0,35.33,0,35.33c.09.05.22.07.23.08v-35.64s-29.58,0-29.58,0Z"/>
          <path class="cls-6" d="M30.79,90.44l-.37-.3c-.06-.01-.15-.04-.23-.08l-.13-.07v-35.23s-29.32,0-29.32,0l-.03-.22c0-.06,0-.11,0-.16,0-.03,0-.06,0-.07l-.03-.28h30.11s0,36.42,0,36.42Z"/>
        </g>
        <g>
          <path class="cls-8" d="M47.55,89.91s.14-.03.23-.08v-35.33s29.35,0,29.35,0c0-.07,0-.15,0-.23h-29.58s0,35.64,0,35.64Z"/>
          <path class="cls-6" d="M47.3,90.44v-36.42s30.11,0,30.11,0l-.03.28s0,.04,0,.07c0,.04,0,.1,0,.16l-.03.22h-29.32s0,35.23,0,35.23l-.13.07c-.08.04-.17.07-.23.08l-.37.3Z"/>
        </g>
        <g>
          <path class="cls-9" d="M30.54,3.23c-.08,0-.15,0-.23,0v31.19s-30.04,0-30.04,0c0,.08,0,.15,0,.23h30.27s0-31.42,0-31.42Z"/>
          <path class="cls-6" d="M30.79,34.9H.02s0-.25,0-.25c0-.04,0-.08,0-.12v-.37s30.04,0,30.04,0V2.98s.73,0,.73,0v31.93Z"/>
        </g>
        <g>
          <path class="cls-9" d="M47.78,3.23c-.08,0-.15,0-.23,0v31.42s30.27,0,30.27,0c0-.06-.01-.21,0-.23h-30.04s0-31.19,0-31.19Z"/>
          <path class="cls-6" d="M47.55,34.9h-.25V2.98s.73,0,.73,0v31.19s30.29,0,30.29,0l-.26.34s0,.02,0,.03c0,.05,0,.09,0,.13v.24s-30.52,0-30.52,0Z"/>
        </g>
      </g>
      <g>
        <path class="cls-2" d="M51.08,72.34l2.4-9.67c.23-.04.6-.05.57.28l-.23.1-1.97,8.23c1.63-.25,3.44-.67,5.05-.12.18.06.43.11.5.31-2.16-.25-4.25.33-6.32.86Z"/>
        <path class="cls-2" d="M58.36,72.54c-2.98-.32-5.99.88-8.81,1.72l2.68-9.86c.16-.04.5-.01.47.23l-2.29,8.39c2.07-.52,4.29-1.35,6.46-1.15.13.01,1.81.36,1.49.67Z"/>
        <path class="cls-2" d="M58.65,64.83v6.27c-.88-.15-1.73-.5-2.64-.57-.61-.05-1.49-.04-2.11,0-.18,0-1.47.28-1.48.15l2.12-8.76c.17-.12.76.23.95.33.67.33,3.16,1.82,3.16,2.59Z"/>
        <path class="cls-2" d="M61.57,70.53c-.91.07-1.75.42-2.64.57v-6.37c.08-.38,1.01-1.29,1.44-1.39.14.15-1.11,3.33-1.15,3.98-.02.32.54-.05.62-.15.19-.25.42-1.25.7-1.69.49-.78.92-.79,1.51-1.27.31-.26.6-.84.9-1.11.1-.09.14-.21.29-.09.3.24,1.5,6.61,1.82,7.47l-.05.24c-1.11-.17-2.32-.28-3.45-.19Z"/>
        <path class="cls-2" d="M59.96,65.28c.78-2.66,1.79-5.62,4.38-7.01.1.26-.49.51-.72.72-.81.72-1.65,1.78-1.96,2.82.7-.92,1.37-1.87,2.25-2.63.26-.23,1.76-1.41,2.01-1.19.16.41.3,1.82-.23,1.91-.29.05-.69-.03-1.01.1.16.29.82.02.86.43-.02.07-1.08.83-1.22.89-.48.19-1.06,0-1.36.41,1.28-.08.52.41-.03.73.15-.04.36.19.22.32-.15.15-.44-.14-.29-.29-.22.13-.58.18-.77.43.08.14.8-.24.67.09-.02.06-.73.94-.81,1.01-.72.62-1.18.58-1.73,1.62-.07.13-.5,1.59-.71,1.34-.06-.07.39-1.48.45-1.7Z"/>
        <path class="cls-2" d="M63.63,62.67l.39.04,2.48,9.63c-2.13-.56-4.18-1.05-6.42-.86.12-.22.52-.3.75-.35,1.7-.44,3.22-.09,4.9.16l-2.11-8.62Z"/>
        <path class="cls-2" d="M67.94,74.26c-2.84-.9-5.88-2.06-8.91-1.72.38-.42,1.13-.62,1.68-.67,2.13-.2,4.34.61,6.37,1.15.02-.17-.01-.32-.04-.48-.35-1.96-1.27-5.59-1.94-7.45-.08-.21-.31-.43-.32-.45-.06-.26.49-.37.55-.07l2.61,9.7Z"/>
      </g>
      <g>
        <path class="cls-2" d="M75.8,21.58c-.07-.28-.45-.5-.46-.53,0-.07.62-.87.25-1.28-.28-.05-.37.25-.64.31-.65.15-1.56-.12-2.09-.52,2.46-.13,2.57-2.76.04-3.01-2.73-.27-8.04,1.5-10.22-.01-.51-.36-.7-1.06-.22-1.52.73-.69,3.36-.71,4.12-.07.77.64-.32.8-.32.98,0,.16.61.15.77.11.22-.06.27-.37.36-.4.53-.14,1.11.3,1.81-.07.33-.17.63-.74.35-1.01-.12-.11-.33.34-.45.42-.09.05-.4.2-.37-.04.02-.18.21-.59-.05-.71-.14-.07-.19.29-.37.37-.16.07-.63.08-.54-.12.07-.17.25-.17.29-.54.07-.65-.34-.09-.5,0-1.09.57-3.95-.38-5.42.61-.65.44-.66,1.71-.15,2.24,1.6,1.69,6.94.56,9.09.34.79-.08,1.55-.18,2.32.14.63.26,1.02.97.3,1.41-.96.58-3.72-.32-4.94-.4-1.97-.13-2.85.24-4.64.55-.32.06-1.73.1-1.8.19-.06.08-.08.38-.19.56-.29.5-.8.47-1.2.69-.21.11-.33.38-.57.5-.28.15-.8.12-.89.18-.11.08-.03.32-.12.39-.07.05-.6.14-.72.13-.4-.02-.62-.33-1.07-.29-1.47.14-2.37,2.09-4.17,1.15-.36-.19-.49-.76-.88-.76-.12,0-.77.21-.8.29-.11.34.28.16.33.21.04.04-.1.43.16.5l.25.04c0,.08-.17.03-.25.04-.36.08-1,.3-.99.74.43-.05.63.2,1.07.17.08,0,.2-.13.33-.08-.03.15-.2.17-.33.16-.07.37-.43.57-.33.99.17.03.21-.15.37-.16.23-.01.49.16.81.06.26-.08.35-.51.59-.56.47-.1.08.48-.12.66.45.07.89-.14,1.24-.41.09-.07.17-.3.33-.33.02.15,0,.28-.16.33.02.02-.07.15.12.17.23.03.43-.06.62-.17.11-.07.32-.33.45-.41l-.29.41c.26.08.27.11.58.05.36-.08.67-.42.86-.46.16-.03.14.05.13.17v.08c.46.08.93-.07.99-.58l.16.33c.79-.09.63-1.04,1.18-1.34.43-.23.87-.1,1.34-.23.74-.21,1.86-1.14,2.7-1.5.74-.32,2.19-.84,2.97-.71.1.02.66.22.72.27.13.11.45.79.71,1.03,1.12,1.02,2.88-.23,4.13-.25.92-.02,1.62,1.15,1.03,1.94-.37.5-.67.1-1.11.12-.14,0-.73.18-.79.29-.13.3.2.16.31.22.27.15-.06.5.68.23.07-.02.12-.11.16-.04-.03.07-.13.09-.16.12-.18.19-.38.37-.33.66.4-.05.8.24,1.15-.05.15-.12.21-.37.31-.51.1-.14.18-.09.19-.1.02-.02-.05-.17.04-.17.07,0,.04.1.04.17.02.27-.01.55,0,.83.37.1.19-.2.32-.29.12-.08.39.01.51-.16.19-.72.64-1.44.57-2.19-.28.05-.23-.25.04-.17.09.03.02.11.04.17.06.14.08.3.21.41.3.08.22-.81.17-.99ZM57.52,23.73c-.03-.12.04-.17.12-.25l.04.25h-.16Z"/>
        <path class="cls-2" d="M52.4,19.19v.25s-.62,0-.62,0c-.11.48.51.61.87.66.16.02.29-.09.25.16-.08.01-.18-.02-.25,0-.05.01-.14-.03-.17.04-.07.37.78.63,1.08.62-.06.2-.45-.08-.33.29.01.04.54.32.64.35.4.13,1.07.07,1.55.1,1.65.09.37-.33.21-.7-.13-.3.57.13.66.04l-.16-.66c.41.47.71.77,1.4.66.07-.06-.22-.55,0-.58.23.63.78.73,1.4.66l-.12-.49c.39.17.89.22,1.28.04.12-.06.43-.27.19-.37-.19-.08-.68-.06-.73-.41.37.59,2.61-.25,2.19-.66-.05-.05-1.27.3-1.4-.29.56.11,1.48.1,1.57-.62-.5.09-1.08-.09-1.15-.66.95-.02.46-.11.16-.45-.31-.35-.48-.9-.79-1.27-.1-.12-.34-.22-.36-.3-.03-.14.33-.53.24-.61-.14-.04-.3.09-.41.08-.09,0-.1-.05-.08-.12l.08-.04c.03-.1.13-.19.08-.33-.67.23-1.27-.32-1.98-.17l.08-.41c-.43-.02-.91-.02-1.27.26-.18.14-.21.34-.33.46-.31.31-.93.29-1.15.88-.18.48.11.39.1.43-.01.09-.21.29-.24.5-.04.25.01.53,0,.78l.41-.04c-.1.15-.41.6-.41.74v1.28c-.81.04-1.78-.86-1.71-1.67.03-.33.39-.62.39-.76,0-.11-.41-1.05-.58-.87.08.4-.19.39-.37.58-.04.05-.03.13-.05.16-.16.24-.16.03-.17-.17-.01-.72-.05-.36-.37-.66-.09-.09-.13-.25-.25-.33-.48-.34-.19.21-.22.36-.07.29-.31.05-.15.72.31-.07.18.39,0,.25-.02-.01.01-.12,0-.16-.21-.03-1.44.3-1.16.58.41-.11.41.29.61.42.27.17.48.01.79.36.59.66-.17.58-.66.46.04.64.89.7,1.4.66ZM58.92,16.72c0,.38-.5.22-.74.25-.12-.43.42-.11.74-.25ZM57.81,14.95c.11,0,.47-.25.7-.13l-.08.66-.25-.41c-.26-.07-.22.31-.25.33-.19.17-.51-.34-.49-.53.11-.15.3.09.37.09ZM57.76,17.3c.24.23-.75.27-.66-.17.03-.03.64.14.66.17ZM56.44,16.14s.63.23.65.25c.03.03,0,.17,0,.24-.19.11-.78-.38-.66-.49ZM56.27,18.32c.02-.09-.06-.83.17-.61.03.03.17.48.17.58.18-.1.22-.25.45-.26.42,0,.33.38.37.42.06.05.5-.26.66-.16-.24.17-.43.96-.58,1.03-.24.13-1.06-.29-1.39-.3-.12-.28.11-.49.15-.69Z"/>
        <path class="cls-2" d="M67.28,21.19c-.13-.24-.15-.53-.24-.67-.28-.43-2.96-.09-2.47.99.23.5,2.44,1,2.35,1.44-.07.32-.84.41-1.11.38-.33-.03-1.48-.46-1.72-.67-.24-.21-.26-.62-.68-.65l-.94.08c-.06.25.27.21.32.26.05.06,0,.29.01.4,0,.01.1.02.08.08-.05,0-.11,0-.16,0-.21.02-1.35.28-1.07.58.02.02.25-.02.33,0,.06.01.06.05.08.08.13.17.01.32.41.25l.08.12-.08.04c-.08.17-.68.27-.49.74.44-.26.64.22,1.03.17.22-.03.27-.27.43-.32.1-.03.82-.05.85-.02.03.03-.03.3,0,.33.02.03.6.01.7,0,.26-.03.34-.13.53-.25.03-.02.19-.29.33-.16.19.17-.15.15-.16.16-.43.34.21.37.52.31.21-.04.35-.18.56-.23.03-.07.09-.33.21-.33.2,0,.16.52-.21.41-.1.27-.35.33.29.34.86,0,1.03-.63,1.16-.66.08-.02,1.18.8,1.52,0-.9-.16-.24-.3.04-.58.24-.23.35-.38.19-.69-.33-.63-2.12-.96-2.68-1.94ZM64.37,24.47c-.09-.09.07-.25.16-.16.09.09-.07.25-.16.16Z"/>
      </g>
      <g>
        <path class="cls-2" d="M28.47,21.58c-.07-.28-.45-.5-.46-.53,0-.07.62-.87.25-1.28-.28-.05-.37.25-.64.31-.65.15-1.56-.12-2.09-.52,2.46-.13,2.57-2.76.04-3.01-2.73-.27-8.04,1.5-10.22-.01-.51-.36-.7-1.06-.22-1.52.73-.69,3.36-.71,4.12-.07.77.64-.32.8-.32.98,0,.16.61.15.77.11.22-.06.27-.37.36-.4.53-.14,1.11.3,1.81-.07.33-.17.63-.74.35-1.01-.12-.11-.33.34-.45.42-.09.05-.4.2-.37-.04.02-.18.21-.59-.05-.71-.14-.07-.19.29-.37.37-.16.07-.63.08-.54-.12.07-.17.25-.17.29-.54.07-.65-.34-.09-.5,0-1.09.57-3.95-.38-5.42.61-.65.44-.66,1.71-.15,2.24,1.6,1.69,6.94.56,9.09.34.79-.08,1.55-.18,2.32.14.63.26,1.02.97.3,1.41-.96.58-3.72-.32-4.94-.4-1.97-.13-2.85.24-4.64.55-.32.06-1.73.1-1.8.19-.06.08-.08.38-.19.56-.29.5-.8.47-1.2.69-.21.11-.33.38-.57.5-.28.15-.8.12-.89.18-.11.08-.03.32-.12.39-.07.05-.6.14-.72.13-.4-.02-.62-.33-1.07-.29-1.47.14-2.37,2.09-4.17,1.15-.36-.19-.49-.76-.88-.76-.12,0-.77.21-.8.29-.11.34.28.16.33.21.04.04-.1.43.16.5l.25.04c0,.08-.17.03-.25.04-.36.08-1,.3-.99.74.43-.05.63.2,1.07.17.08,0,.2-.13.33-.08-.03.15-.2.17-.33.16-.07.37-.43.57-.33.99.17.03.21-.15.37-.16.23-.01.49.16.81.06.26-.08.35-.51.59-.56.47-.1.08.48-.12.66.45.07.89-.14,1.24-.41.09-.07.17-.3.33-.33.02.15,0,.28-.16.33.02.02-.07.15.12.17.23.03.43-.06.62-.17.11-.07.32-.33.45-.41l-.29.41c.26.08.27.11.58.05.36-.08.67-.42.86-.46.16-.03.14.05.13.17v.08c.46.08.93-.07.99-.58l.16.33c.79-.09.63-1.04,1.18-1.34.43-.23.87-.1,1.34-.23.74-.21,1.86-1.14,2.7-1.5.74-.32,2.19-.84,2.97-.71.1.02.66.22.72.27.13.11.45.79.71,1.03,1.12,1.02,2.88-.23,4.13-.25.92-.02,1.62,1.15,1.03,1.94-.37.5-.67.1-1.11.12-.14,0-.73.18-.79.29-.13.3.2.16.31.22.27.15-.06.5.68.23.07-.02.12-.11.16-.04-.03.07-.13.09-.16.12-.18.19-.38.37-.33.66.4-.05.8.24,1.15-.05.15-.12.21-.37.31-.51.1-.14.18-.09.19-.1.02-.02-.05-.17.04-.17.07,0,.04.1.04.17.02.27-.01.55,0,.83.37.1.19-.2.32-.29.12-.08.39.01.51-.16.19-.72.64-1.44.57-2.19-.28.05-.23-.25.04-.17.09.03.02.11.04.17.06.14.08.3.21.41.3.08.22-.81.17-.99ZM10.19,23.73c-.03-.12.04-.17.12-.25l.04.25h-.16Z"/>
        <path class="cls-2" d="M5.08,19.19v.25s-.62,0-.62,0c-.11.48.51.61.87.66.16.02.29-.09.25.16-.08.01-.18-.02-.25,0-.05.01-.14-.03-.17.04-.07.37.78.63,1.08.62-.06.2-.45-.08-.33.29.01.04.54.32.64.35.4.13,1.07.07,1.55.1,1.65.09.37-.33.21-.7-.13-.3.57.13.66.04l-.16-.66c.41.47.71.77,1.4.66.07-.06-.22-.55,0-.58.23.63.78.73,1.4.66l-.12-.49c.39.17.89.22,1.28.04.12-.06.43-.27.19-.37-.19-.08-.68-.06-.73-.41.37.59,2.61-.25,2.19-.66-.05-.05-1.27.3-1.4-.29.56.11,1.48.1,1.57-.62-.5.09-1.08-.09-1.15-.66.95-.02.46-.11.16-.45-.31-.35-.48-.9-.79-1.27-.1-.12-.34-.22-.36-.3-.03-.14.33-.53.24-.61-.14-.04-.3.09-.41.08-.09,0-.1-.05-.08-.12l.08-.04c.03-.1.13-.19.08-.33-.67.23-1.27-.32-1.98-.17l.08-.41c-.43-.02-.91-.02-1.27.26-.18.14-.21.34-.33.46-.31.31-.93.29-1.15.88-.18.48.11.39.1.43-.01.09-.21.29-.24.5-.04.25.01.53,0,.78l.41-.04c-.1.15-.41.6-.41.74v1.28c-.81.04-1.78-.86-1.71-1.67.03-.33.39-.62.39-.76,0-.11-.41-1.05-.58-.87.08.4-.19.39-.37.58-.04.05-.03.13-.05.16-.16.24-.16.03-.17-.17-.01-.72-.05-.36-.37-.66-.09-.09-.13-.25-.25-.33-.48-.34-.19.21-.22.36-.07.29-.31.05-.15.72.31-.07.18.39,0,.25-.02-.01.01-.12,0-.16-.21-.03-1.44.3-1.16.58.41-.11.41.29.61.42.27.17.48.01.79.36.59.66-.17.58-.66.46.04.64.89.7,1.4.66ZM11.59,16.72c0,.38-.5.22-.74.25-.12-.43.42-.11.74-.25ZM10.48,14.95c.11,0,.47-.25.7-.13l-.08.66-.25-.41c-.26-.07-.22.31-.25.33-.19.17-.51-.34-.49-.53.11-.15.3.09.37.09ZM10.44,17.3c.24.23-.75.27-.66-.17.03-.03.64.14.66.17ZM9.12,16.14s.63.23.65.25c.03.03,0,.17,0,.24-.19.11-.78-.38-.66-.49ZM8.95,18.32c.02-.09-.06-.83.17-.61.03.03.17.48.17.58.18-.1.22-.25.45-.26.42,0,.33.38.37.42.06.05.5-.26.66-.16-.24.17-.43.96-.58,1.03-.24.13-1.06-.29-1.39-.3-.12-.28.11-.49.15-.69Z"/>
        <path class="cls-2" d="M19.96,21.19c-.13-.24-.15-.53-.24-.67-.28-.43-2.96-.09-2.47.99.23.5,2.44,1,2.35,1.44-.07.32-.84.41-1.11.38-.33-.03-1.48-.46-1.72-.67-.24-.21-.26-.62-.68-.65l-.94.08c-.06.25.27.21.32.26.05.06,0,.29.01.4,0,.01.1.02.08.08-.05,0-.11,0-.16,0-.21.02-1.35.28-1.07.58.02.02.25-.02.33,0,.06.01.06.05.08.08.13.17.01.32.41.25l.08.12-.08.04c-.08.17-.68.27-.49.74.44-.26.64.22,1.03.17.22-.03.27-.27.43-.32.1-.03.82-.05.85-.02.03.03-.03.3,0,.33.02.03.6.01.7,0,.26-.03.34-.13.53-.25.03-.02.19-.29.33-.16.19.17-.15.15-.16.16-.43.34.21.37.52.31.21-.04.35-.18.56-.23.03-.07.09-.33.21-.33.2,0,.16.52-.21.41-.1.27-.35.33.29.34.86,0,1.03-.63,1.16-.66.08-.02,1.18.8,1.52,0-.9-.16-.24-.3.04-.58.24-.23.35-.38.19-.69-.33-.63-2.12-.96-2.68-1.94ZM17.04,24.47c-.09-.09.07-.25.16-.16.09.09-.07.25-.16.16Z"/>
      </g>
      <g>
        <path class="cls-2" d="M12.6,69.53c.82.09,1.38.82.77,1.55-.34.08-.72-1.29-.77-1.55Z"/>
        <g>
          <path class="cls-2" d="M18.9,59.91c-5.7.35-9.08,6.51-6.24,11.53,2.56,4.51,9.09,5.17,12.58,1.37,4.8-5.23.65-13.33-6.34-12.9ZM22.18,61.08c.69.07,2.48,1.62,2.94,2.19.58.72,1.18,1.54.72,2.44-.39-.07-.6-.4-1.02-.47-.34-.05-1.2-.07-1.34.31-.19.53.11.62.58.64-.13,1.24-1.02-.48-1.67-.24.61-2.11-2.32-1.56-3.58-1.61.24-.31.86-.45,1.08-.71.22-.27.18-.79.26-.88.23-.27,1.62.12,1.77-.68.05-.26-.15-1.04.28-1ZM20.58,70.69c-.03-.17-.31-1-.39-1.29-.4-1.41-1.71-.43-2.86-1.32-.46-.36-.1-1.58.28-1.96,1.33-1.33,3.09.54,4.66-.17-.09.69.29,1.55.71,2.09.14.18.45.29.46.31.17.29-.66,1.02-.76,1.41-.14.52,0,.94-.31,1.48-.15.25-1.07,1.21-1.33,1.14-.19-.05-.5-.6-.54-.8-.06-.35.13-.59.08-.89ZM17.78,74.44c-.96-.23-3.03-1.22-3.56-2.05-.54-.86.18-1.51,0-2.27-.16-.73-.97-.82-1.17-1.34-.18-.45-.03-.93-.14-1.41-.1-.42-.52-.63-.54-.88,0-.14.22-.96.29-1.14.2-.54.75-1.18,1.21-1.54.75-.57,1.89-.37,2.04-1.66.03-.26-.2-.47.03-.68.73-.69,4.39-1.28,5.13-.72.16.12.18,1,.1,1.12-.09.14-1.18.13-1.53.44-.32.29-.15.71-.36.95-.28.31-1.55.66-1.55,1.31,0,.19.32.56.23.65-.04.04-.68.16-1.01.6-.4.54-.67,1.89-.36,2.49.25.49,2.31,1.13,2.92.96-.16.57.28,1.04.35,1.5.13.82-.19,1.32.61,2.01.82.7,1.76-.31,2.24-.97.63-.86.32-1.04.55-1.83.15-.53,1.48-1.56,1.03-2.09-.24-.29-.88-.01-.85-.52.99-.02,1.11-.56,1.49-1.31.22-.06.68.89.97.95.24.04.35-.42.64-.35-.07.69.09,1.53,0,2.21-.53,3.93-5.06,6.44-8.78,5.56Z"/>
          <path class="cls-2" d="M21.49,65c.15.04.25.41.18.48-.06.05-1,0-1.2-.06-.12-.03-.65-.27-.71-.42.47.08,1.32-.11,1.73,0Z"/>
        </g>
        <path class="cls-2" d="M15.23,62.02c.29.33-.55,1.02-.95.83-.19-.17.85-.95.95-.83Z"/>
      </g>
      <g>
        <rect class="cls-4" x="36.9" y="41.16" width="4.44" height="4.44"/>
        <rect class="cls-3" x="36.9" y="40.56" width="4.44" height=".61"/>
        <rect class="cls-3" x=".27" y="40.56" width="36.02" height=".61"/>
        <rect class="cls-3" x="41.94" y="40.56" width="36.02" height=".61"/>
        <rect class="cls-3" x="41.94" y="45.6" width="36.02" height=".61"/>
        <rect class="cls-3" x=".27" y="45.6" width="36.02" height=".61"/>
        <rect class="cls-3" x="36.9" y="45.6" width="4.44" height=".61"/>
        <rect class="cls-3" x="36.29" y="3.22" width=".61" height="37.34"/>
        <rect class="cls-3" x="36.29" y="41.16" width=".61" height="4.44"/>
        <rect class="cls-3" x="36.29" y="46.21" width=".61" height="46.92"/>
        <rect class="cls-3" x="36.29" y="40.56" width=".61" height=".61"/>
        <rect class="cls-3" x="36.29" y="45.6" width=".61" height=".61"/>
        <rect class="cls-3" x="41.34" y="46.21" width=".61" height="46.92"/>
        <rect class="cls-3" x="41.34" y="3.22" width=".61" height="37.34"/>
        <rect class="cls-3" x="41.34" y="41.16" width=".61" height="4.44"/>
        <rect class="cls-3" x="41.34" y="40.56" width=".61" height=".61"/>
        <rect class="cls-3" x="41.34" y="45.6" width=".61" height=".61"/>
      </g>
      <rect class="cls-6" x="30.54" y="34.6" width="17.05" height="19.68"/>
      <text class="cls-1" transform="translate(32.92 50.05)"><tspan x="0" y="0">C</tspan></text>
      <text class="cls-7" transform="translate(88.43 46.78) scale(.81 1)"><tspan x="0" y="0">Cambridge</tspan></text>
      <text class="cls-5" transform="translate(91.81 69.75) scale(.78 1)"><tspan x="0" y="0">college of international studies</tspan></text>
    </g>
  </g>
</svg>