<?xml version="1.0" encoding="UTF-8"?>
<svg id="Layer_2" data-name="Layer 2" xmlns="http://www.w3.org/2000/svg" viewBox="0 0 380.94 380.94">
  <defs>
    <style>
      .cls-1 {
        fill: #2a3f8e;
      }
    </style>
  </defs>
  <g id="Layer_1-2" data-name="Layer 1">
    <g id="_ختم" data-name="ختم">
      <path class="cls-1" d="M252.41,370.53c-24.31,8.36-49.52,11.71-74.96,9.96-24.56-1.69-48.28-8.05-70.51-18.9-22.22-10.85-41.83-25.64-58.28-43.96-17.03-18.97-29.9-40.91-38.26-65.22C2.05,228.11-1.3,202.89.45,177.46c1.69-24.56,8.05-48.28,18.9-70.51,10.85-22.22,25.64-41.83,43.96-58.28,18.97-17.03,40.91-29.9,65.22-38.26C152.83,2.05,178.05-1.3,203.48.45c24.56,1.69,48.28,8.05,70.51,18.9,22.22,10.85,41.83,25.64,58.28,43.96,17.03,18.97,29.9,40.91,38.26,65.22,8.36,24.31,11.71,49.52,9.96,74.96-1.69,24.56-8.05,48.28-18.9,70.51-10.85,22.22-25.64,41.83-43.96,58.28-18.97,17.03-40.91,29.9-65.22,38.26ZM131.15,18.04C36.08,50.75-14.66,154.71,18.04,249.79c32.71,95.08,136.67,145.82,231.74,113.11,95.08-32.71,145.82-136.67,113.11-231.74C330.19,36.08,226.23-14.66,131.15,18.04Z"/>
      <path class="cls-1" d="M248.71,359.77c-22.85,7.86-46.57,11.01-70.48,9.37-23.09-1.59-45.4-7.57-66.3-17.77-20.9-10.2-39.33-24.11-54.8-41.33-16.01-17.84-28.11-38.47-35.98-61.32-7.86-22.85-11.01-46.57-9.37-70.48,1.59-23.09,7.57-45.4,17.77-66.3,10.2-20.9,24.11-39.33,41.33-54.8,17.84-16.01,38.47-28.11,61.32-35.98,22.85-7.86,46.57-11.01,70.48-9.37,23.09,1.59,45.4,7.57,66.3,17.77,20.9,10.2,39.33,24.11,54.8,41.33,16.01,17.84,28.11,38.47,35.98,61.32,7.86,22.85,11.01,46.57,9.37,70.48-1.59,23.09-7.57,45.4-17.77,66.3-10.2,20.9-24.11,39.33-41.33,54.8-17.84,16.01-38.47,28.11-61.32,35.98ZM133.66,25.33C42.6,56.66-6,156.22,25.33,247.28c31.33,91.06,130.89,139.66,221.95,108.33,91.06-31.33,139.66-130.89,108.33-221.95C324.29,42.6,224.72-6,133.66,25.33Z"/>
      <path class="cls-1" d="M224.01,287.96c-26.04,8.96-54.01,7.24-78.76-4.84-24.75-12.08-43.31-33.07-52.27-59.11-8.96-26.04-7.24-54.01,4.84-78.76,12.08-24.75,33.07-43.31,59.11-52.27,26.04-8.96,54.01-7.24,78.76,4.84,24.75,12.08,43.31,33.07,52.27,59.11,8.96,26.04,7.24,54.01-4.84,78.76-12.08,24.75-33.07,43.31-59.11,52.27ZM157.89,95.76c-52.22,17.97-80.1,75.07-62.13,127.3,17.97,52.22,75.07,80.1,127.3,62.13,52.22-17.97,80.1-75.07,62.13-127.3-17.97-52.22-75.07-80.1-127.3-62.13Z"/>
      <g>
        <path class="cls-1" d="M268.7,176.53c-.99-1.46-3.64-1.98-3.72-2.19-.15-.39,1.85-6.28-1.13-7.93-1.75.27-1.67,2.22-3.07,3.09-3.47,2.16-9.32,2.43-13.17,1.15,14.05-5.66,9.44-21.19-5.79-17.59-16.4,3.88-43.77,24.79-59.44,20.35-3.69-1.04-6.21-4.77-4.33-8.37,2.84-5.46,18.09-10.87,23.83-8.66,5.74,2.21-.23,5.29.1,6.36.29.94,3.87-.35,4.66-.91,1.15-.81.83-2.69,1.32-3.03,2.78-1.89,7.07-.46,10.42-4.01,1.56-1.65,2.17-5.57.05-6.56-.92-.43-1.23,2.66-1.78,3.32-.42.5-1.95,1.97-2.24.51-.22-1.11.03-3.84-1.68-4.01-.97-.1-.55,2.06-1.42,2.89-.81.76-3.47,1.72-3.36.36.09-1.12,1.13-1.5.63-3.7-.9-3.93-2.15.14-2.94.97-5.2,5.5-23.73,5.7-30.27,14.37-2.89,3.83-.4,11.25,3.62,13.34,12.71,6.62,41.48-10.62,53.52-16.2,4.46-2.06,8.66-4.14,13.74-3.83,4.21.25,7.85,3.63,4.57,7.58-4.43,5.32-22.28,5.58-29.52,7.56-11.7,3.2-16.11,7.11-25.89,12.51-1.77.98-9.87,4.04-10.07,4.67-.19.59.28,2.37.03,3.61-.7,3.46-3.73,4.37-5.61,6.44-.97,1.07-1.18,2.86-2.32,4.06-1.36,1.42-4.41,2.3-4.8,2.85-.5.7.48,1.9.05,2.5-.32.44-3.18,2.02-3.89,2.21-2.4.67-4.27-.71-6.8.44-8.26,3.76-9.61,16.92-21.92,15.04-2.46-.38-4.37-3.42-6.63-2.64-.68.23-4.07,2.79-4.06,3.26.05,2.21,1.97.34,2.34.53.31.16.25,2.7,1.95,2.55l1.53-.26c.17.49-.95.49-1.36.74-1.92,1.16-5.21,3.72-4.27,6.3,2.37-1.15,4.05-.09,6.57-1.18.45-.19.92-1.16,1.76-1.14.12.95-.8,1.39-1.59,1.62.33,2.3-1.34,4.16.06,6.41,1.03-.14.91-1.29,1.81-1.65,1.29-.52,3.14-.07,4.85-1.29,1.36-.97,1.01-3.68,2.33-4.45,2.54-1.5,1.42,2.65.61,4.09,2.75-.52,4.92-2.58,6.37-4.87.37-.59.39-2.09,1.25-2.58.42.86.54,1.65-.29,2.25.17.1-.11,1.03,1.04.77,1.38-.31,2.39-1.23,3.27-2.26.51-.6,1.21-2.53,1.82-3.3l-.86,2.97c1.7-.04,1.8.11,3.48-.9,1.94-1.16,3.04-3.8,4.08-4.4.85-.49.89,0,1.06.72l.17.48c2.83-.45,5.24-2.28,4.61-5.34l1.61,1.59c4.41-2.12,1.56-7.33,4.19-10.13,2.05-2.18,4.85-2.29,7.34-4,3.9-2.68,8.51-10.32,12.72-14.15,3.66-3.33,11.06-9.27,15.83-10.05.65-.11,4.26-.02,4.72.15,1,.39,4.18,3.71,6.16,4.56,8.55,3.69,16.29-7.08,23.52-9.72,5.31-1.94,11.71,3.46,9.87,9.25-1.16,3.63-3.7,1.95-6.24,2.92-.82.31-3.92,2.5-3.98,3.27-.17,2,1.46.52,2.26.67,1.88.36.64,3.01,4.4-.02.34-.27.48-.9.87-.57-.03.47-.59.8-.7,1.05-.66,1.49-1.49,2.91-.6,4.5,2.22-1.11,5.11-.2,6.6-2.57.64-1.02.48-2.58.78-3.59.3-.99.86-.91.89-.98.08-.17-.61-.9-.09-1.05.42-.17.42.52.57.88.65,1.55,1.02,3.24,1.65,4.8,2.33-.17.7-1.54,1.3-2.35.51-.7,2.29-.7,2.63-1.92-.33-4.56.86-9.64-1.06-13.89-1.53.85-1.82-1-.09-1.04.57-.01.35.62.57.88.62.71,1.09,1.61,2.03,1.98,1.92-.17-.37-5.16-1.01-6.11ZM166.7,225.59c-.4-.65-.13-1.07.23-1.68l.73,1.35-.95.33Z"/>
        <path class="cls-1" d="M127.87,209.44l.49,1.44-3.6,1.24c.3,3,4.17,2.5,6.36,2.11.99-.18,1.52-1.09,1.77.46-.43.22-1.06.27-1.44.5-.29.17-.85.09-.9.6.34,2.28,5.79,2.13,7.49,1.43.08,1.3-2.74.45-1.35,2.34.16.22,3.77.77,4.42.77,2.6-.02,6.34-1.7,9.21-2.51,9.76-2.77,1.47-2.65-.21-4.49-1.35-1.49,3.58-.38,3.92-1.07l-2.27-3.51c3.33,1.93,5.68,3.03,9.47,1.03.27-.5-2.38-2.73-1.16-3.35,2.62,3.21,6.02,2.68,9.48,1.02l-1.71-2.62c2.63.21,5.6-.47,7.52-2.33.58-.56,1.94-2.4.39-2.54-1.26-.11-4.06,1-5.08-.93,3.32,2.69,14.65-6.65,11.39-8.22-.43-.2-6.81,4.28-8.72,1.12,3.48-.47,8.83-2.39,7.87-6.72-2.71,1.49-6.46,1.62-8.03-1.53,5.47-2.03,2.47-1.57.05-2.97-2.47-1.43-4.58-4.28-7.13-5.83-.79-.48-2.43-.61-2.7-1.03-.46-.73.85-3.73.18-4.03-.89.07-1.54,1.14-2.23,1.3-.53.13-.66-.08-.73-.55l.4-.41c-.05-.61.35-1.36-.18-2.08-3.45,2.66-8,.68-11.84,3l-.35-2.56c-2.57.73-5.33,1.68-6.85,4.04-.76,1.18-.52,2.36-1,3.31-1.21,2.41-4.8,3.55-4.91,7.38-.09,3.13,1.4,2.02,1.45,2.3.09.54-.64,2.13-.41,3.41.27,1.51,1.13,3.04,1.53,4.54l2.31-1.06c-.27,1.06-1.2,4.3-.91,5.15l2.56,7.44c-4.61,1.85-12.09-1.4-13.32-6.3-.49-1.95,1.02-4.39.77-5.2-.21-.67-4.5-5.26-5.09-3.9,1.25,2.16-.32,2.65-.97,4.12-.15.35.11.83.06,1.03-.46,1.69-.89.47-1.29-.63-1.53-4.18-1.04-2-3.46-3.13-.68-.32-1.27-1.2-2.1-1.43-3.48-1-.66,1.59-.58,2.54.15,1.84-1.67.93.54,4.48,1.63-1.04,1.8,1.9.5,1.44-.13-.05-.16-.72-.33-.96-1.29.22-7.76,4.64-5.57,5.67,2.16-1.45,2.95.87,4.41,1.21,1.88.44,2.81-.87,5.33.54,4.75,2.67.2,3.73-2.93,3.97,1.49,3.65,6.55,2.28,9.48,1.03ZM160.82,182c.73,2.23-2.45,2.28-3.83,2.92-1.55-2.29,2.23-1.47,3.83-2.92ZM150.83,173.97c.65-.19,2.26-2.37,3.8-2.18l.84,4-2.26-1.9c-1.66.11-.69,2.24-.79,2.41-.76,1.35-3.65-.95-3.95-2.12.33-1.1,1.9-.08,2.36-.21ZM155.26,187.68c1.85.89-3.83,3.04-4.17.36.14-.25,3.98-.45,4.17-.36ZM145.28,183.59c.12-.22,4.12.06,4.31.17.23.14.32.99.52,1.38-.89,1.01-5.32-.63-4.82-1.56ZM148.66,196.62c-.07-.55-2.04-4.72-.25-3.91.26.12,1.93,2.45,2.13,3.02.83-.92.75-1.91,2.12-2.39,2.41-.85,2.69,1.56,3.01,1.7.44.2,2.36-2.49,3.5-2.27-1.09,1.45-.57,6.42-1.29,7.17-1.16,1.22-6.76.45-8.7,1.02-1.29-1.4-.35-3.06-.52-4.34Z"/>
        <path class="cls-1" d="M218.39,191.25c-1.25-1.1-1.95-2.8-2.73-3.41-2.49-1.95-17.38,5.43-12.4,10.67,2.33,2.45,16.19.94,16.52,3.66.24,1.99-4.07,4.04-5.7,4.43-1.98.47-9.54.28-11.35-.46-1.82-.74-2.76-3.07-5.22-2.41l-5.33,2.36c.13,1.61,1.98.66,2.36.87.42.24.57,1.71.88,2.3.03.06.64-.11.64.31-.31.14-.65.2-.96.34-1.18.51-7.3,4.31-5.08,5.5.18.09,1.42-.61,1.92-.66.37-.03.45.18.64.31,1.08.75.72,1.84,2.89.61l.72.55-.39.41c-.12,1.17-3.44,2.93-1.39,5.31,2.06-2.41,4.18.02,6.3-1.08,1.19-.61,1.04-2.1,1.89-2.7.52-.37,4.68-1.92,4.91-1.8.23.12.43,1.81.66,1.93.19.1,3.51-1.12,4.1-1.4,1.47-.71,1.7-1.4,2.61-2.52.14-.17.5-2.09,1.59-1.62,1.41.61-.57,1.2-.63,1.29-1.83,2.84,1.96,1.72,3.63.77,1.13-.65,1.69-1.78,2.77-2.44.07-.46-.11-2.1.54-2.32,1.16-.4,2,2.71-.38,2.8-.05,1.75-1.36,2.61,2.36,1.37,5.04-1.67,4.71-5.74,5.41-6.18.45-.28,8.48,2.26,8.84-3.04-5.56.88-2.03-1.27-.89-3.44.94-1.8,1.3-2.93-.27-4.41-3.19-3.02-14.28-1.36-19.48-5.91ZM208.01,216.2c-.7-.34-.08-1.63.63-1.28.7.34.08,1.63-.63,1.28Z"/>
      </g>
      <g>
        <polygon class="cls-1" points="309.87 149.15 303.84 153.69 306.3 160.82 300.12 156.5 294.09 161.03 296.3 153.82 290.12 149.49 297.66 149.36 299.87 142.15 302.33 149.28 309.87 149.15"/>
        <polygon class="cls-1" points="316.15 177.82 309.24 180.85 309.99 188.35 304.98 182.72 298.07 185.75 301.88 179.24 296.86 173.61 304.23 175.22 308.03 168.71 308.78 176.21 316.15 177.82"/>
        <polygon class="cls-1" points="315.63 207.15 308.21 208.49 307.19 215.97 303.62 209.32 296.2 210.67 301.41 205.22 297.84 198.58 304.63 201.85 309.85 196.4 308.83 203.87 315.63 207.15"/>
        <polygon class="cls-1" points="308.33 235.57 300.8 235.16 298.09 242.2 296.15 234.92 288.62 234.52 294.94 230.41 293 223.13 298.86 227.88 305.18 223.77 302.48 230.81 308.33 235.57"/>
        <polygon class="cls-1" points="294.72 261.52 287.48 259.4 283.23 265.64 283.01 258.1 275.77 255.98 282.87 253.44 282.65 245.9 287.26 251.87 294.36 249.32 290.11 255.55 294.72 261.52"/>
        <polygon class="cls-1" points="275.48 283.68 268.93 279.95 263.35 285.03 264.87 277.64 258.32 273.91 265.82 273.08 267.34 265.69 270.45 272.56 277.95 271.73 272.37 276.81 275.48 283.68"/>
        <polygon class="cls-1" points="251.63 300.77 246.12 295.62 239.52 299.27 242.72 292.44 237.21 287.29 244.7 288.22 247.89 281.39 249.32 288.79 256.81 289.72 250.21 293.37 251.63 300.77"/>
        <polygon class="cls-1" points="224.5 311.9 220.32 305.62 213.06 307.66 217.73 301.74 213.55 295.47 220.62 298.08 225.29 292.16 224.99 299.7 232.07 302.32 224.81 304.36 224.5 311.9"/>
        <polygon class="cls-1" points="195.52 316.51 192.9 309.44 185.36 309.74 191.28 305.06 188.66 297.99 194.93 302.17 200.85 297.49 198.81 304.76 205.09 308.94 197.55 309.25 195.52 316.51"/>
        <polygon class="cls-1" points="166.24 314.27 165.33 306.78 157.93 305.33 164.77 302.15 163.86 294.66 169 300.19 175.84 297.01 172.17 303.6 177.31 309.12 169.91 307.68 166.24 314.27"/>
        <polygon class="cls-1" points="138.32 305.34 139.15 297.85 132.28 294.73 139.67 293.21 140.51 285.72 144.24 292.27 151.62 290.75 146.54 296.32 150.27 302.88 143.4 299.77 138.32 305.34"/>
        <polygon class="cls-1" points="113.19 290.25 115.72 283.15 109.75 278.54 117.29 278.76 119.82 271.65 121.95 278.89 129.49 279.1 123.26 283.36 125.39 290.6 119.42 285.99 113.19 290.25"/>
        <polygon class="cls-1" points="92.18 269.74 96.29 263.42 91.55 257.56 98.83 259.51 102.94 253.19 103.33 260.72 110.62 262.67 103.58 265.37 103.97 272.91 99.22 267.04 92.18 269.74"/>
        <polygon class="cls-1" points="76.51 244.94 81.98 239.74 78.72 232.93 85.35 236.52 90.82 231.32 89.45 238.74 96.09 242.33 88.61 243.33 87.25 250.75 83.99 243.94 76.51 244.94"/>
        <polygon class="cls-1" points="66.97 217.2 73.48 213.39 71.86 206.02 77.5 211.03 84.01 207.22 80.99 214.13 86.63 219.14 79.12 218.4 76.1 225.31 74.48 217.94 66.97 217.2"/>
        <polygon class="cls-1" points="64.06 188.01 71.28 185.81 71.41 178.26 75.74 184.44 82.95 182.24 78.41 188.26 82.73 194.44 75.6 191.99 71.06 198.01 71.19 190.47 64.06 188.01"/>
        <polygon class="cls-1" points="68.01 158.92 75.54 158.44 77.41 151.14 80.19 158.15 87.72 157.68 81.91 162.49 84.68 169.5 78.31 165.46 72.5 170.26 74.38 162.96 68.01 158.92"/>
        <polygon class="cls-1" points="78.54 131.56 85.97 132.83 89.47 126.15 90.57 133.61 98 134.88 91.24 138.22 92.33 145.69 87.06 140.29 80.3 143.64 83.81 136.96 78.54 131.56"/>
        <polygon class="cls-1" points="95.06 107.35 102 110.29 106.95 104.59 106.29 112.11 113.24 115.05 105.89 116.75 105.24 124.27 101.35 117.8 94 119.51 98.95 113.81 95.06 107.35"/>
        <polygon class="cls-1" points="116.76 87.57 122.83 92.04 128.96 87.65 126.59 94.8 132.66 99.28 125.12 99.23 122.74 106.39 120.46 99.2 112.91 99.15 119.05 94.76 116.76 87.57"/>
        <polygon class="cls-1" points="142.45 73.37 147.32 79.13 154.3 76.27 150.34 82.68 155.21 88.44 147.88 86.65 143.92 93.06 143.36 85.54 136.03 83.75 143.01 80.89 142.45 73.37"/>
        <polygon class="cls-1" points="170.68 65.45 174.11 72.17 181.56 70.98 176.23 76.32 179.66 83.04 172.94 79.62 167.61 84.95 168.78 77.5 162.06 74.08 169.51 72.9 170.68 65.45"/>
        <polygon class="cls-1" points="199.99 64.25 201.77 71.58 209.29 72.16 202.87 76.11 204.65 83.44 198.9 78.56 192.48 82.51 195.35 75.54 189.6 70.65 197.12 71.23 199.99 64.25"/>
        <polygon class="cls-1" points="228.8 69.89 228.83 77.43 236.02 79.72 228.85 82.09 228.89 89.63 224.43 83.55 217.27 85.91 221.67 79.79 217.21 73.71 224.39 76.01 228.8 69.89"/>
        <polygon class="cls-1" points="255.5 81.97 253.8 89.32 260.27 93.21 252.75 93.87 251.06 101.22 248.11 94.27 240.6 94.93 246.29 89.98 243.34 83.04 249.81 86.92 255.5 81.97"/>
        <polygon class="cls-1" points="278.73 99.89 275.39 106.65 280.79 111.92 273.32 110.83 269.98 117.59 268.71 110.16 261.25 109.07 267.92 105.56 266.65 98.13 272.05 103.39 278.73 99.89"/>
        <polygon class="cls-1" points="297.19 122.69 292.37 128.49 296.39 134.87 289.39 132.08 284.57 137.88 285.06 130.35 278.05 127.56 285.36 125.7 285.85 118.17 289.88 124.55 297.19 122.69"/>
      </g>
      <path class="cls-1" d="M233.79,316.41c-17,5.85-34.64,8.19-52.43,6.97-17.18-1.18-33.77-5.63-49.31-13.22-15.54-7.59-29.26-17.93-40.76-30.75-11.91-13.27-20.91-28.62-26.76-45.62s-8.19-34.64-6.97-52.43c1.18-17.18,5.63-33.77,13.22-49.31,7.59-15.54,17.93-29.26,30.75-40.76,13.27-11.91,28.62-20.91,45.62-26.76s34.64-8.19,52.43-6.97c17.18,1.18,33.77,5.63,49.31,13.22,15.54,7.59,29.26,17.93,40.76,30.75,11.91,13.27,20.91,28.62,26.76,45.62,5.85,17,8.19,34.64,6.97,52.43-1.18,17.18-5.63,33.77-13.22,49.31s-17.93,29.26-30.75,40.76c-13.27,11.91-28.62,20.91-45.62,26.76ZM148.1,67.31c-67.91,23.36-104.15,97.62-80.79,165.53,23.36,67.91,97.62,104.15,165.53,80.79,67.91-23.36,104.15-97.62,80.79-165.53-23.36-67.91-97.62-104.15-165.53-80.79Z"/>
      <g>
        <path class="cls-1" d="M349.96,171.77c.36,3.09-.15,5.67-1.54,7.75-1.47,2.21-3.6,3.48-6.39,3.81-1.74.21-3.4-.1-4.97-.92-2.97-1.54-4.69-4.37-5.17-8.48-.36-3.06.15-5.64,1.54-7.71,1.48-2.21,3.57-3.48,6.27-3.8,1.83-.22,3.53.08,5.1.89,1.66.86,2.95,2.19,3.88,3.98.64,1.23,1.07,2.72,1.3,4.48ZM348.16,171.99c-.3-2.52-1.31-4.45-3.04-5.81-1.5-1.18-3.22-1.66-5.16-1.43-1.94.23-3.5,1.09-4.68,2.59-1.37,1.72-1.9,3.85-1.6,6.39.3,2.54,1.31,4.49,3.04,5.84,1.5,1.18,3.19,1.66,5.07,1.44,2.03-.24,3.63-1.11,4.78-2.6,1.34-1.73,1.88-3.87,1.6-6.42Z"/>
        <path class="cls-1" d="M341.47,190.38l-6.42-.18c-.43-.01-.73.05-.92.18-.19.13-.34.39-.45.78h-.42s.12-4.23.12-4.23h.42c.09.41.23.68.41.82.18.14.48.22.91.23l13.93.39c.44.01.74-.05.93-.18.18-.13.33-.39.44-.78h.42s-.4,14.19-.4,14.19c-.01.43.05.73.18.92.13.19.39.34.78.45v.42s-3.7-.1-3.7-.1v-.42c.41-.09.68-.23.82-.41.14-.18.21-.48.22-.91l.31-10.95-5.87-.17-.2,7.12c-.01.44.05.74.17.92s.39.33.79.44v.42s-3.7-.1-3.7-.1v-.42c.41-.09.68-.23.82-.4s.22-.48.23-.91l.2-7.12Z"/>
        <path class="cls-1" d="M333.03,214.14l13.72,2.4c.43.08.74.06.94-.04.2-.1.38-.34.55-.71l.41.07-.73,4.16-.41-.07c-.03-.41-.13-.69-.28-.86-.15-.16-.44-.28-.87-.36l-13.73-2.4c-.42-.07-.73-.06-.93.04-.2.1-.39.34-.56.71l-.41-.07.73-4.16.41.07c.03.41.13.69.29.86.16.16.44.28.86.36Z"/>
        <path class="cls-1" d="M343.78,226.99l-12.48-3.53c-.41-.12-.72-.14-.93-.06-.21.08-.42.29-.63.66l-.41-.11,1.05-3.7.41.11c-.01.42.05.71.19.89.14.17.41.32.82.44l13.41,3.79c.42.12.73.14.94.06.21-.08.41-.3.62-.65l.4.11-1.54,5.46-.41-.11c-.02-.57-.21-.9-.56-1-.3-.09-.71,0-1.24.26l-13.9,6.78,11.67,3.3c.42.12.73.14.94.06.21-.08.41-.3.62-.65l.41.11-1.05,3.7-.41-.11c0-.41-.06-.7-.19-.88-.13-.18-.41-.33-.83-.45l-13.41-3.79c-.41-.12-.72-.14-.93-.06-.21.08-.42.29-.63.66l-.4-.11,1.24-4.39.4.11c-.02.56.11.87.39.95.21.06.65-.07,1.33-.4l15.09-7.43Z"/>
        <path class="cls-1" d="M335.3,254.58l-12.75-5.54c-.39-.17-.7-.23-.91-.18-.22.05-.46.23-.71.57l-.39-.17,1.68-3.87.39.17c-.06.4-.04.7.08.9.11.2.36.38.76.55l12.75,5.54,2.27-5.22c.17-.4.24-.71.18-.92s-.24-.45-.56-.7l.17-.39,3.39,1.47-.17.39c-.4-.06-.7-.04-.9.07-.19.11-.38.36-.55.76l-5.42,12.48c-.17.4-.23.71-.18.92s.24.45.56.7l-.17.39-3.39-1.47.17-.39c.41.06.71.04.9-.07.19-.11.38-.37.55-.76l2.27-5.22Z"/>
        <path class="cls-1" d="M322.47,263.7l-5.56-3.3-5.5,9.28c-.22.38-.32.67-.3.9.02.22.18.48.48.76l-.22.38-3.18-1.88.22-.38c.39.12.68.14.89.06.21-.08.42-.31.64-.69l7.16-12.06.36.21c-.12.4-.13.7-.04.91.09.2.32.42.68.63l11.98,7.11c.38.22.67.32.89.29.22-.03.48-.18.77-.47l.36.21-7.1,11.97c-.22.38-.32.67-.29.89.03.22.18.48.47.77l-.21.36-3.18-1.88.21-.36c.4.11.7.13.9.05s.42-.31.64-.69l5.45-9.2-5.07-3.01-3.47,5.86c-.22.38-.32.67-.29.89.03.22.18.48.47.77l-.21.36-3.18-1.88.21-.36c.4.11.7.13.91.04.21-.09.42-.32.64-.68l3.47-5.86Z"/>
        <path class="cls-1" d="M311.81,279.88l-4.82-3.8c-.33-.26-.62-.4-.84-.41-.23,0-.5.11-.83.36l-.33-.26,2.62-3.32.33.26c-.17.38-.22.68-.16.9.06.21.26.45.6.72l10.94,8.63c.34.27.62.41.85.41s.5-.12.82-.36l.33.26-6.42,8.14c-.73.92-1.39,1.62-1.98,2.1-.59.48-1.21.81-1.86,1-1.42.42-2.77.12-4.06-.9-1.05-.83-1.62-1.82-1.71-2.96-.09-1.14.31-2.4,1.2-3.78l-8.17-.87c-.28-.03-.51,0-.67.06-.16.07-.38.23-.65.51l-.33-.26,2.68-3.39.33.26c-.19.37-.21.61-.07.72.1.08.37.14.81.18l7.47.78,3.93-4.98ZM313.14,280.93l-4.11,5.21c-.66.84-1.13,1.49-1.4,1.96s-.44.91-.51,1.34c-.15.93.22,1.74,1.11,2.44.86.68,1.74.88,2.65.62.84-.24,1.78-1.02,2.83-2.35l4.27-5.41-4.83-3.81Z"/>
        <path class="cls-1" d="M303.35,300.46l-8.91-9.42c-.29-.31-.55-.49-.77-.53s-.51.04-.88.24l-.29-.31,2.8-2.65.29.31c-.22.35-.32.64-.29.86.03.22.19.49.49.8l9.58,10.12c.3.32.56.49.78.53.22.04.51-.04.87-.24l.29.31-4.12,3.9-.29-.31c.27-.5.28-.88.03-1.15-.21-.23-.61-.36-1.2-.41l-15.41-1.29,8.34,8.81c.3.32.56.49.78.53.22.04.51-.04.87-.24l.29.31-2.8,2.65-.29-.31c.22-.35.31-.63.29-.85-.02-.22-.18-.49-.48-.81l-9.58-10.12c-.29-.31-.55-.49-.77-.53s-.51.04-.88.24l-.29-.31,3.32-3.14.29.31c-.3.47-.35.81-.15,1.02.15.16.6.27,1.35.33l16.76,1.34Z"/>
        <path class="cls-1" d="M272.08,313.61l7.48-5.28-.62-3.15c-.07-.39-.16-.66-.26-.81-.2-.29-.57-.34-1.09-.14l-.24-.34,3.51-2.48.24.34c-.3.3-.47.62-.51.96-.04.34,0,.9.16,1.67l2.52,13.6c.14.75.28,1.24.43,1.45.21.3.55.33,1.02.1l.24.34-4.14,2.92-.24-.34c.36-.39.44-.73.25-1-.11-.16-.6-.5-1.47-1l-11.5-6.67c-.77-.44-1.35-.7-1.74-.79-.39-.09-.78-.04-1.15.15l-.24-.34,3.71-2.62.24.34c-.34.36-.43.65-.29.85.07.1.37.31.9.62l2.79,1.62ZM273.66,314.58l8.05,4.79-1.79-9.21-6.26,4.42Z"/>
        <path class="cls-1" d="M263.88,330.84l-6.52-12.28c-.2-.38-.4-.61-.6-.71-.2-.1-.5-.1-.91,0l-.2-.37,3.73-1.98.2.37c-.3.28-.47.53-.5.75-.03.22.05.52.25.9l6.52,12.28,5.03-2.67c.39-.2.63-.41.72-.61.09-.2.09-.5,0-.9l.37-.2,1.73,3.26-.37.2c-.28-.3-.53-.47-.74-.51-.22-.04-.52.05-.91.25l-12.02,6.38c-.39.2-.62.41-.72.61-.09.2-.09.5,0,.9l-.37.2-1.73-3.26.37-.2c.28.3.53.47.75.5.22.03.52-.05.9-.25l5.03-2.67Z"/>
        <path class="cls-1" d="M248.1,322.97l5.45,12.83c.17.4.35.66.55.77.19.11.49.14.9.08l.16.39-3.89,1.65-.16-.39c.32-.25.51-.48.57-.7.06-.22,0-.52-.17-.93l-5.45-12.83c-.17-.39-.35-.65-.54-.76-.2-.11-.5-.14-.9-.08l-.16-.39,3.89-1.65.16.39c-.32.25-.51.48-.56.7-.05.22,0,.53.17.92Z"/>
        <path class="cls-1" d="M237.14,344.09c-2.97.9-5.6.86-7.89-.14-2.44-1.05-4.07-2.92-4.89-5.62-.51-1.68-.5-3.37.03-5.06.99-3.19,3.47-5.39,7.43-6.59,2.95-.9,5.57-.85,7.86.15,2.44,1.06,4.06,2.89,4.85,5.5.54,1.76.54,3.48.03,5.17-.55,1.79-1.63,3.29-3.24,4.52-1.1.84-2.49,1.53-4.18,2.07ZM236.61,342.36c2.43-.74,4.15-2.08,5.18-4.02.9-1.69,1.06-3.46.5-5.33-.57-1.87-1.7-3.25-3.38-4.15-1.93-1.04-4.12-1.19-6.57-.44-2.45.74-4.18,2.09-5.21,4.03-.9,1.68-1.07,3.43-.52,5.24.6,1.96,1.73,3.37,3.41,4.24,1.94,1.02,4.14,1.16,6.6.44Z"/>
        <path class="cls-1" d="M218.6,345.54l-1.8-12.84c-.06-.42-.17-.71-.32-.88-.15-.16-.44-.27-.85-.31l-.06-.42,3.81-.54.06.42c-.39.16-.63.34-.74.54-.1.2-.13.51-.07.93l1.94,13.8c.06.43.17.73.33.88.16.16.44.26.85.31l.06.42-5.62.79-.06-.42c.51-.25.74-.56.69-.92-.04-.31-.29-.65-.74-1.03l-11.81-9.99,1.69,12.01c.06.43.17.73.33.88s.44.26.85.31l.06.42-3.81.54-.06-.42c.38-.16.62-.33.73-.53s.13-.51.07-.94l-1.94-13.8c-.06-.42-.17-.71-.32-.88s-.44-.27-.85-.31l-.06-.42,4.52-.64.06.42c-.52.21-.75.46-.71.75.03.22.33.57.9,1.05l12.88,10.81Z"/>
        <path class="cls-1" d="M185.51,338.12l9.16.03,1.33-2.93c.17-.36.25-.63.25-.81,0-.35-.27-.6-.81-.75v-.42s4.3.02,4.3.02v.42c-.42.07-.74.23-.98.49-.23.25-.51.74-.84,1.45l-5.83,12.54c-.32.69-.49,1.17-.49,1.43,0,.36.26.59.78.67v.42s-5.07-.02-5.07-.02v-.42c.52-.11.78-.33.78-.67,0-.2-.2-.75-.62-1.67l-5.5-12.1c-.37-.8-.69-1.35-.96-1.66-.27-.3-.61-.49-1.03-.55v-.42s4.54.02,4.54.02v.42c-.49.1-.73.28-.73.53,0,.12.12.47.37,1.03l1.34,2.93ZM186.23,339.82l3.78,8.57,3.89-8.54-7.67-.03Z"/>
        <path class="cls-1" d="M175.46,334.19l-10.55-1.39c-.43-.06-.75-.03-.95.08-.2.11-.37.35-.53.73l-.42-.06.48-3.66.42.06c.05.41.16.69.32.84.16.16.46.27.89.32l13.75,1.82-.06.42c-.4.05-.69.16-.84.32s-.26.45-.32.88l-1.83,13.81c-.06.43-.03.75.08.94.11.19.36.37.73.52l-.06.42-4.19-.55.06-.42c.41-.05.69-.16.84-.31.16-.16.26-.45.32-.89l1.83-13.88Z"/>
        <path class="cls-1" d="M133.46,339.44l2.68-2.71.3.29c-.14.27-.23.46-.27.57-.08.24.15.63.69,1.17,1.13,1.17,2.67,2.07,4.63,2.71,1.57.51,3,.65,4.29.42,1.29-.24,2.1-.89,2.45-1.95.15-.47.15-.95,0-1.42-.15-.47-.44-.86-.85-1.17s-.88-.57-1.41-.8c-.53-.23-1.68-.66-3.44-1.31-1.48-.53-2.58-.99-3.3-1.38-.72-.39-1.3-.82-1.75-1.3-.48-.51-.79-1.14-.92-1.86-.14-.73-.09-1.46.15-2.19.49-1.53,1.52-2.55,3.07-3.06,1.85-.59,4.02-.49,6.51.32,1.23.4,2.45,1,3.68,1.81,1.23.81,2.32,1.73,3.26,2.76.13.15.23.24.31.26.15.05.43-.05.83-.3l.27.33-2.9,2.55-.29-.32c.07-.11.11-.18.14-.22.1-.14.17-.26.2-.36.09-.28-.28-.85-1.12-1.7-1.41-1.45-3.03-2.47-4.86-3.06-1.67-.54-3.15-.7-4.45-.49-.62.1-1.17.34-1.64.71s-.78.81-.95,1.32c-.15.47-.16.94-.01,1.4.15.46.41.84.79,1.14.36.27.78.51,1.26.73s1.4.58,2.77,1.08c1.61.6,2.75,1.05,3.42,1.37.67.32,1.28.7,1.83,1.12.7.54,1.19,1.21,1.46,2.01.27.82.26,1.68-.03,2.58-.51,1.59-1.64,2.61-3.38,3.05-1.77.45-3.8.31-6.07-.42-2.08-.67-4.01-1.81-5.81-3.41-.27-.23-.44-.35-.49-.37-.16-.05-.41.07-.74.37l-.31-.3Z"/>
        <path class="cls-1" d="M121.72,333.16l5.95-12.57c.18-.39.25-.69.21-.91-.04-.22-.22-.46-.54-.73l.18-.38,3.82,1.81-.18.38c-.4-.08-.7-.06-.9.05-.2.11-.39.35-.57.74l-5.95,12.57,5.14,2.43c.39.19.7.26.92.21s.46-.23.72-.54l.38.18-1.58,3.34-.38-.18c.08-.4.06-.7-.04-.9-.1-.2-.35-.39-.74-.58l-12.3-5.82c-.39-.19-.7-.26-.92-.21-.22.05-.46.23-.72.54l-.38-.18,1.58-3.34.38.18c-.08.4-.06.71.05.9.11.2.35.39.74.57l5.14,2.43Z"/>
        <path class="cls-1" d="M109.49,326.75l4.85-7.54c.75-1.16,1.21-2,1.38-2.52s.16-1.04-.03-1.59c-.38-1.13-1.53-2.31-3.43-3.54-2.11-1.35-3.78-1.89-5.02-1.6-.46.11-.86.35-1.22.72-.36.37-.88,1.08-1.57,2.15l-4.85,7.54c-.23.36-.34.65-.32.88.02.23.16.49.44.79l-.23.35-3.24-2.08.23-.35c.39.13.69.15.9.08.21-.08.43-.3.67-.66l5.09-7.92c.87-1.35,1.59-2.22,2.17-2.63.99-.7,2.14-.94,3.45-.73,1.31.21,2.86.89,4.65,2.05,2.57,1.65,4.06,3.29,4.48,4.9.21.77.21,1.5.02,2.18-.2.68-.68,1.61-1.44,2.8l-5.09,7.92c-.24.37-.34.66-.33.88.02.22.16.48.44.78l-.23.35-3.55-2.28.23-.35c.39.13.69.15.9.07.21-.08.43-.3.66-.66Z"/>
        <path class="cls-1" d="M101.64,304.72l-9.14,10.52c-.28.32-.43.59-.45.82-.02.22.09.51.32.85l-.28.32-6.66-5.79c-1.78-1.55-2.92-2.91-3.43-4.08-.63-1.47-.72-3.07-.27-4.82.38-1.51,1.09-2.86,2.11-4.05,1.21-1.39,2.67-2.36,4.38-2.9,1.49-.48,2.89-.52,4.18-.12,1.3.4,2.79,1.33,4.48,2.8l6.66,5.79-.28.32c-.37-.19-.67-.26-.89-.2-.22.05-.47.24-.75.56ZM99.99,303.21l-4.13-3.59c-1.56-1.36-2.89-2.14-3.97-2.34-1.2-.23-2.43-.02-3.69.63-.94.5-1.81,1.2-2.59,2.1-1.4,1.61-2.1,3.25-2.12,4.93,0,.92.24,1.78.72,2.58s1.29,1.7,2.44,2.7l4.13,3.59,9.22-10.61Z"/>
        <path class="cls-1" d="M85.86,290.18l-10.15,9.54c-.32.3-.49.56-.53.78-.04.22.04.51.24.87l-.31.29-2.89-3.08.31-.29c.35.22.63.31.85.29.22-.02.49-.18.81-.48l10.15-9.54c.31-.29.49-.55.53-.77.04-.22-.04-.51-.23-.87l.31-.29,2.89,3.08-.31.29c-.35-.22-.63-.31-.86-.29-.22.03-.49.18-.8.48Z"/>
        <path class="cls-1" d="M74.18,286.78l5.1-3.98-6.63-8.5c-.27-.34-.51-.55-.73-.61-.22-.06-.51,0-.88.17l-.27-.34,2.91-2.27.27.34c-.25.32-.38.59-.38.81,0,.22.14.51.41.85l8.63,11.06-.33.26c-.33-.26-.61-.38-.83-.37-.22,0-.5.15-.84.41l-10.99,8.57c-.34.27-.54.51-.6.73s0,.51.16.89l-.33.26-8.56-10.97c-.27-.34-.51-.54-.73-.6-.21-.06-.51,0-.89.16l-.26-.33,2.91-2.27.26.33c-.25.33-.37.6-.37.82,0,.22.14.5.41.85l6.57,8.43,4.65-3.62-4.19-5.37c-.27-.34-.51-.54-.72-.6-.22-.06-.51,0-.89.16l-.26-.33,2.91-2.27.26.33c-.25.33-.37.6-.37.83,0,.23.14.51.4.84l4.19,5.37Z"/>
        <path class="cls-1" d="M48.8,263.79l3.8-.24.03.42c-.29.11-.48.19-.58.25-.21.13-.3.57-.27,1.33.06,1.63.61,3.33,1.65,5.1.84,1.42,1.81,2.48,2.92,3.16,1.12.68,2.16.74,3.12.18.43-.25.74-.61.94-1.06.2-.45.25-.93.14-1.44s-.28-1.02-.52-1.54c-.24-.52-.81-1.61-1.7-3.27-.75-1.38-1.26-2.45-1.55-3.22-.28-.77-.43-1.48-.44-2.14-.01-.7.17-1.37.55-2,.38-.63.9-1.14,1.57-1.53,1.39-.81,2.83-.89,4.32-.24,1.78.79,3.33,2.31,4.65,4.57.65,1.11,1.17,2.38,1.54,3.8.38,1.42.58,2.83.6,4.23,0,.2.01.33.06.4.08.13.35.24.83.33l-.02.43-3.87-.03v-.43c.12-.04.2-.06.25-.07.17-.04.3-.09.39-.14.25-.15.35-.82.3-2.02-.09-2.02-.62-3.86-1.59-5.52-.89-1.51-1.89-2.62-3-3.32-.53-.34-1.1-.52-1.69-.56-.59-.04-1.12.08-1.59.35-.43.25-.74.6-.94,1.04-.2.44-.25.9-.17,1.38.09.44.24.9.45,1.39s.66,1.37,1.35,2.65c.8,1.52,1.35,2.62,1.64,3.3.29.69.5,1.37.62,2.06.16.87.08,1.69-.25,2.48-.34.79-.92,1.43-1.74,1.91-1.44.85-2.96.86-4.55.03-1.63-.84-3.04-2.29-4.25-4.35-1.1-1.88-1.79-4.02-2.06-6.41-.05-.36-.09-.56-.12-.6-.08-.14-.35-.22-.8-.22l-.04-.43Z"/>
      </g>
      <g>
        <path class="cls-1" d="M22.88,184.32l4.96,2.66-.29.54c-.4-.1-.7-.14-.93-.13-.53.03-1.16.89-1.89,2.59-1.01,2.34-1.45,4.87-1.32,7.57.17,3.64,1.32,6.54,3.44,8.71,2.16,2.2,4.87,3.23,8.14,3.07,3.25-.16,5.89-1.48,7.92-3.98,1.98-2.41,2.89-5.32,2.73-8.71-.16-3.32-1.26-6.2-3.32-8.64-.93-1.1-1.57-1.65-1.93-1.63-.18,0-.48.13-.88.37l-.39-.45,4.05-3.67.41.47c-.31.38-.46.69-.45.92,0,.14.16.38.45.72.96,1.15,1.68,2.11,2.17,2.88.49.77.91,1.61,1.27,2.53.76,1.91,1.19,4.02,1.3,6.35.21,4.49-.86,8.19-3.22,11.12-2.47,3.08-5.74,4.71-9.79,4.91-3.2.15-6.01-.64-8.44-2.37-3.8-2.71-5.85-6.95-6.12-12.71-.18-3.81.65-7.54,2.49-11.2.12-.24.18-.41.17-.5,0-.17-.27-.46-.79-.88l.27-.54Z"/>
        <path class="cls-1" d="M44.04,162.93l-1.71,11.35,3.38,2.18c.42.27.74.43.96.46.44.07.8-.22,1.08-.87l.52.08-.8,5.33-.52-.08c-.01-.53-.15-.96-.43-1.3-.27-.34-.82-.77-1.65-1.31l-14.48-9.51c-.8-.53-1.36-.82-1.69-.87-.45-.07-.78.21-.98.84l-.52-.08.95-6.28.52.08c.05.67.27,1.03.69,1.09.24.04.97-.12,2.18-.46l16-4.62c1.06-.31,1.8-.61,2.23-.89.42-.28.71-.67.87-1.17l.52.08-.85,5.63-.52-.08c-.04-.62-.21-.96-.52-1-.15-.02-.6.07-1.34.27l-3.88,1.12ZM41.8,163.52l-11.31,3.12,9.88,6.37,1.43-9.5Z"/>
        <path class="cls-1" d="M55.6,143.77l-20.47,2.71,15.32,5.35c.5.18.89.22,1.16.14.27-.08.55-.34.84-.76l.5.17-1.59,4.55-.5-.17c.04-.51-.02-.88-.18-1.12-.16-.23-.49-.44-1-.62l-16.48-5.75c-.52-.18-.91-.23-1.17-.14-.26.09-.54.34-.83.77l-.5-.17,2.19-6.27.5.17c-.03.68.13,1.08.49,1.21.15.05.59.03,1.32-.06l15.46-1.93-10.89-11.17c-.49-.5-.82-.78-1.01-.85-.36-.12-.73.09-1.13.64l-.5-.17,2.21-6.33.5.17c-.04.51.02.88.18,1.12.16.24.49.44,1,.62l16.48,5.75c.5.18.89.22,1.16.14.27-.08.55-.34.83-.76l.5.17-1.74,5-.5-.17c.04-.51-.02-.88-.18-1.12-.16-.23-.49-.44-1-.62l-15.32-5.35,14.34,14.86Z"/>
        <path class="cls-1" d="M60.74,106.81c2.19-1.7,4.38-1.91,6.57-.64,1.6.93,2.55,2.23,2.86,3.91.16.94.12,1.88-.15,2.83-.26.95-.79,2.11-1.59,3.48l-6.78,11.71-.46-.26c.14-.49.15-.87.03-1.13-.11-.26-.4-.52-.86-.79l-15.11-8.74c-.47-.27-.85-.39-1.12-.36-.28.04-.59.23-.96.6l-.46-.26,6.57-11.36c.68-1.18,1.31-2.1,1.89-2.74.58-.64,1.2-1.13,1.87-1.46.8-.41,1.67-.6,2.62-.55.95.05,1.84.31,2.66.78,1.74,1,2.53,2.67,2.39,4.99ZM52.87,118.34l4.16-7.18c.66-1.14,1.1-2,1.33-2.58.23-.58.34-1.16.34-1.73.02-1.15-.51-2.03-1.6-2.66-1.21-.7-2.39-.71-3.54-.04-.5.3-.95.69-1.35,1.19-.4.5-.92,1.3-1.56,2.4l-4.04,6.98,6.27,3.63ZM61.85,123.54l4.36-7.54c.69-1.19,1.15-2.1,1.38-2.72.23-.62.33-1.23.31-1.85-.05-1.25-.68-2.22-1.9-2.92-1.36-.79-2.67-.84-3.93-.15-.54.29-1.03.69-1.47,1.21-.44.52-.99,1.36-1.66,2.52l-4.23,7.32,7.13,4.13Z"/>
        <path class="cls-1" d="M69.34,97.38l5.9,4.93c.41.34.76.52,1.04.54.28.02.63-.12,1.05-.42l.4.34-3.39,4.06-.4-.34c.23-.47.3-.84.23-1.12-.07-.27-.31-.58-.72-.92l-13.39-11.2c-.42-.35-.77-.53-1.05-.54-.28-.01-.63.13-1.04.43l-.4-.34,8.33-9.96c.94-1.13,1.79-1.98,2.55-2.56.76-.58,1.55-.98,2.37-1.19,1.79-.47,3.47-.05,5.05,1.27,1.29,1.08,1.97,2.33,2.03,3.76.07,1.43-.48,2.99-1.64,4.69l10.2,1.38c.35.04.63.02.84-.05.2-.08.48-.28.84-.61l.4.34-3.47,4.15-.4-.34c.25-.46.28-.76.11-.9-.12-.1-.46-.19-1.01-.26l-9.32-1.24-5.1,6.1ZM67.71,96.01l5.33-6.38c.86-1.03,1.47-1.83,1.82-2.41.36-.58.58-1.13.68-1.66.22-1.16-.21-2.19-1.3-3.1-1.05-.88-2.15-1.17-3.29-.87-1.06.27-2.27,1.22-3.63,2.85l-5.53,6.62,5.92,4.95Z"/>
        <path class="cls-1" d="M90.17,85.8l-11.96-12.71c-.37-.4-.7-.62-.97-.67-.27-.05-.64.05-1.09.3l-.36-.38,3.85-3.63.36.38c-.27.43-.39.79-.36,1.07.03.28.23.61.6,1.01l11.96,12.71c.37.39.69.61.97.66.28.05.64-.05,1.09-.29l.36.38-3.85,3.63-.36-.38c.27-.43.39-.79.36-1.07-.03-.28-.23-.62-.6-1.01Z"/>
        <path class="cls-1" d="M96.98,79.22l-10.27-14.11c-.31-.43-.6-.69-.87-.78-.27-.09-.64-.04-1.13.16l-.31-.43,8.94-6.5c2.39-1.74,4.37-2.75,5.95-3.05,1.97-.35,3.95-.01,5.96,1.02,1.74.89,3.19,2.13,4.35,3.72,1.36,1.86,2.13,3.92,2.31,6.17.17,1.96-.18,3.67-1.03,5.14-.85,1.47-2.41,3.03-4.67,4.68l-8.94,6.5-.31-.43c.33-.4.5-.75.5-1.03,0-.28-.16-.64-.47-1.07ZM99.28,77.64l5.54-4.03c2.09-1.52,3.42-2.92,3.97-4.2.62-1.4.71-2.96.26-4.68-.35-1.29-.96-2.55-1.84-3.76-1.57-2.16-3.38-3.48-5.43-3.97-1.12-.26-2.24-.21-3.36.15-1.11.36-2.44,1.1-3.98,2.22l-5.54,4.03,10.36,14.24Z"/>
        <path class="cls-1" d="M131.33,38.61l-.58,5.03-.52-.05c-.08-.47-.15-.77-.22-.91-.15-.31-.93-.52-2.35-.63-2.3-.16-4.46.24-6.49,1.2-2.49,1.18-4.22,2.88-5.19,5.1-1.08,2.46-1.02,4.95.17,7.46,1.13,2.39,2.9,3.94,5.3,4.66,2.38.73,4.93.45,7.64-.84,1.36-.65,2.57-1.47,3.61-2.46,1.04-.99,1.82-2.05,2.34-3.17l-1.72-3.63-4.45,2.11c-.49.23-.81.48-.94.73-.13.25-.15.62-.04,1.12l-.48.23-1.98-4.18.48-.23c.32.4.62.63.9.68.28.05.66-.04,1.16-.27l7.78-3.69.23.48c-.4.32-.63.62-.68.9-.05.28.04.66.27,1.16l.97,2.05c.23.49.48.81.72.94.25.13.62.15,1.13.04l.19.41c-1.81,4.07-4.74,7.07-8.8,8.99-3.2,1.52-6.22,1.9-9.08,1.15-1.53-.41-2.92-1.12-4.16-2.13-1.33-1.07-2.35-2.35-3.06-3.85-1.05-2.21-1.32-4.52-.83-6.93.45-2.15,1.5-4.06,3.13-5.74,1.22-1.26,2.68-2.29,4.37-3.09,1.46-.69,2.87-1.15,4.25-1.37,1.37-.22,3.11-.27,5.23-.17.34.01.56,0,.68-.06.14-.07.31-.43.49-1.1l.54.09Z"/>
        <path class="cls-1" d="M144.04,44.63l2.18,7.8,13.01-3.64c.53-.15.88-.33,1.05-.55.17-.22.25-.59.23-1.1l.53-.15,1.25,4.46-.53.15c-.25-.44-.5-.72-.76-.82-.26-.1-.65-.08-1.18.07l-16.92,4.74-.14-.51c.45-.26.73-.52.82-.79.1-.26.07-.65-.07-1.17l-4.7-16.81c-.15-.53-.33-.87-.55-1.04-.22-.17-.59-.25-1.1-.24l-.14-.51,16.79-4.7c.53-.15.87-.33,1.04-.55.17-.22.25-.59.24-1.1l.51-.14,1.25,4.46-.51.14c-.26-.45-.52-.72-.78-.82-.26-.1-.65-.08-1.18.07l-12.9,3.61,1.99,7.11,8.22-2.3c.53-.15.87-.33,1.04-.56.17-.22.25-.59.24-1.1l.51-.14,1.25,4.46-.51.14c-.26-.45-.52-.72-.79-.82-.26-.1-.65-.08-1.17.07l-8.22,2.3Z"/>
        <path class="cls-1" d="M197.03,27.18l-2.31,4.27-.46-.28c.08-.34.12-.6.11-.78,0-.27-.28-.57-.81-.89-2.14-1.29-4.62-1.89-7.44-1.8-2.76.09-5.04.92-6.86,2.5-2.03,1.77-3,4.03-2.91,6.79.09,2.99,1.32,5.34,3.68,7.05,1.85,1.36,4.04,2,6.55,1.92,2.84-.09,5.28-1,7.32-2.72.8-.68,1.19-1.16,1.18-1.46,0-.22-.13-.55-.36-.98l.44-.31,3.17,3.81-.4.37c-.47-.39-.8-.58-.99-.58-.1,0-.26.09-.46.27-1.56,1.3-3.14,2.26-4.73,2.87-1.59.61-3.38.95-5.37,1.01-3.47.11-6.37-.74-8.68-2.54-1.16-.9-2.1-1.99-2.82-3.25-.91-1.61-1.39-3.36-1.45-5.25-.11-3.58,1.2-6.5,3.93-8.78,2.27-1.88,5.17-2.88,8.7-2.99,3.12-.1,6.13.58,9.03,2.02.25.12.44.18.57.18.27,0,.57-.24.9-.69l.48.24Z"/>
        <path class="cls-1" d="M217.34,27.59c3.84.64,6.77,2.15,8.79,4.55,2.15,2.53,2.94,5.54,2.36,9.02-.36,2.17-1.31,4.06-2.84,5.66-2.89,3.03-6.89,4.12-12,3.27-3.81-.63-6.73-2.15-8.75-4.54-2.15-2.55-2.95-5.5-2.39-8.87.38-2.27,1.33-4.21,2.85-5.82,1.61-1.7,3.66-2.79,6.15-3.28,1.71-.34,3.65-.34,5.84,0ZM216.97,29.82c-3.13-.52-5.82.02-8.05,1.63-1.95,1.39-3.12,3.3-3.52,5.71-.4,2.41.09,4.6,1.49,6.54,1.59,2.24,3.97,3.63,7.13,4.15,3.16.52,5.86-.02,8.09-1.63,1.95-1.39,3.11-3.26,3.5-5.59.42-2.53-.07-4.75-1.47-6.66-1.61-2.22-4-3.61-7.17-4.16Z"/>
        <path class="cls-1" d="M234.09,52.25l12.58,4.44c.52.18.91.23,1.18.15.27-.08.55-.34.84-.76l.5.18-1.54,4.36-.5-.18c.04-.51-.02-.88-.17-1.12-.16-.24-.5-.44-1.01-.63l-16.39-5.79.18-.5c.51.04.88-.02,1.12-.17.24-.16.44-.49.62-.99l5.81-16.46c.18-.52.23-.91.14-1.17-.09-.27-.34-.54-.76-.83l.18-.5,4.99,1.76-.18.5c-.51-.04-.88.01-1.11.17-.23.15-.44.49-.62,1l-5.84,16.53Z"/>
        <path class="cls-1" d="M254.23,60.32l11.78,6.26c.48.26.86.36,1.14.32.28-.04.59-.25.94-.63l.47.25-2.17,4.09-.47-.25c.12-.5.11-.88,0-1.13-.12-.26-.42-.51-.91-.77l-15.35-8.16.25-.47c.5.12.87.11,1.13,0,.26-.12.51-.42.76-.89l8.19-15.42c.26-.48.36-.86.32-1.14-.05-.27-.26-.59-.63-.93l.25-.47,4.67,2.48-.25.47c-.5-.12-.87-.12-1.13,0-.25.12-.51.42-.76.9l-8.23,15.48Z"/>
        <path class="cls-1" d="M277.8,64.77l-4.86,6.49,10.82,8.1c.44.33.8.49,1.08.5.28,0,.62-.16,1.01-.49l.44.33-2.77,3.71-.44-.33c.2-.47.27-.83.19-1.1-.08-.27-.33-.57-.77-.89l-14.07-10.53.32-.42c.48.2.86.26,1.13.17.27-.08.56-.34.88-.77l10.46-13.98c.33-.44.49-.8.49-1.07,0-.28-.16-.62-.48-1.02l.32-.42,13.96,10.45c.44.33.8.49,1.07.49.28,0,.62-.16,1.02-.48l.42.32-2.77,3.71-.42-.32c.2-.48.25-.85.18-1.12-.08-.27-.33-.56-.77-.89l-10.72-8.03-4.42,5.91,6.83,5.11c.44.33.8.49,1.07.49.28,0,.62-.16,1.02-.48l.42.32-2.77,3.71-.42-.32c.2-.48.25-.85.17-1.12-.08-.27-.34-.56-.76-.88l-6.83-5.11Z"/>
        <path class="cls-1" d="M317.08,87.8l-4.97.99-.11-.51c.42-.22.69-.38.8-.49.25-.23.21-1.04-.12-2.43-.55-2.24-1.59-4.17-3.13-5.81-1.89-2.01-4.04-3.13-6.44-3.37-2.67-.28-5.02.54-7.05,2.45-1.93,1.81-2.86,3.97-2.81,6.47.03,2.49,1.08,4.83,3.14,7.02,1.03,1.1,2.18,1.99,3.45,2.68,1.26.69,2.51,1.11,3.74,1.26l2.93-2.76-3.37-3.59c-.37-.4-.7-.62-.98-.67-.28-.05-.64.05-1.08.31l-.36-.38,3.37-3.17.36.38c-.28.43-.41.78-.37,1.06.03.28.24.62.61,1.02l5.9,6.28-.38.36c-.43-.28-.78-.41-1.06-.37-.28.03-.62.24-1.02.61l-1.65,1.55c-.4.37-.62.7-.68.98-.05.28.05.64.31,1.08l-.33.31c-4.43-.48-8.18-2.35-11.26-5.62-2.42-2.58-3.72-5.34-3.88-8.29-.08-1.59.17-3.12.75-4.62.61-1.59,1.52-2.95,2.72-4.09,1.78-1.68,3.9-2.65,6.35-2.91,2.18-.23,4.32.18,6.43,1.22,1.57.78,3,1.85,4.28,3.21,1.11,1.18,1.97,2.38,2.6,3.62.63,1.24,1.22,2.88,1.76,4.92.09.33.18.54.27.63.11.11.51.16,1.2.13l.08.54Z"/>
        <path class="cls-1" d="M315.25,101.78l-6.77,4.45,7.42,11.29c.3.46.58.73.85.83.26.1.64.06,1.12-.12l.3.46-3.87,2.54-.3-.46c.35-.37.53-.69.55-.97.02-.28-.12-.65-.42-1.1l-9.65-14.69.44-.29c.39.35.72.53,1,.55.28.01.64-.13,1.09-.42l14.59-9.58c.46-.3.73-.58.82-.84.09-.26.06-.64-.11-1.12l.44-.29,9.57,14.58c.3.46.58.73.84.82.26.09.64.06,1.12-.11l.29.44-3.87,2.54-.29-.44c.35-.38.53-.71.55-.99.02-.28-.12-.64-.42-1.1l-7.35-11.2-6.17,4.05,4.68,7.13c.3.46.58.73.84.82.26.09.64.06,1.12-.11l.29.44-3.87,2.54-.29-.44c.35-.38.53-.72.54-1,.01-.28-.13-.65-.42-1.09l-4.68-7.13Z"/>
      </g>
      <polygon class="cls-1" points="42.19 226.36 48.45 234.67 58.28 231.29 52.31 239.81 58.57 248.12 48.63 245.07 42.66 253.59 42.48 243.19 32.53 240.15 42.37 236.76 42.19 226.36"/>
      <polygon class="cls-1" points="329.1 127.66 335.36 135.97 345.2 132.59 339.23 141.11 345.48 149.41 335.54 146.37 329.57 154.89 329.39 144.49 319.45 141.44 329.28 138.06 329.1 127.66"/>
    </g>
  </g>
</svg>